<svg enable-background="new 0 0 104.71 130.33" height="352.723776" viewBox="0 0 104.71 130.33" width="283.507965" xmlns="http://www.w3.org/2000/svg" xmlns:xlink="http://www.w3.org/1999/xlink"><clipPath id="a"><path d="m6.4 7h91.92v91.92h-91.92z"/></clipPath><g clip-path="url(#a)"><g fill="#032340"><path d="m6.4 7h91.92v91.92h-91.92z"/><circle cx="52.36" cy="52.96" r="45.96"/><circle cx="52.36" cy="52.96" r="43.57"/><circle cx="52.36" cy="52.96" r="41.18"/></g><circle cx="52.36" cy="52.96" fill="#032341" r="40.73"/><circle cx="52.36" cy="52.96" fill="#032441" r="40.27"/><circle cx="52.36" cy="52.96" fill="#032442" r="39.81"/><circle cx="52.36" cy="52.96" fill="#032443" r="39.35"/><circle cx="52.36" cy="52.96" fill="#032543" r="38.9"/><circle cx="52.36" cy="52.96" fill="#032544" r="38.44"/><circle cx="52.36" cy="52.96" fill="#032544" r="37.98"/><circle cx="52.36" cy="52.96" fill="#032645" r="37.52"/><circle cx="52.36" cy="52.96" fill="#032646" r="37.07"/><circle cx="52.36" cy="52.96" fill="#032746" r="36.61"/><circle cx="52.36" cy="52.96" fill="#032747" r="36.15"/><circle cx="52.36" cy="52.96" fill="#032748" r="35.69"/><circle cx="52.36" cy="52.96" fill="#032848" r="35.24"/><circle cx="52.36" cy="52.96" fill="#042849" r="34.78"/><circle cx="52.36" cy="52.96" fill="#04284a" r="34.32"/><circle cx="52.36" cy="52.96" fill="#04294a" r="33.86"/><circle cx="52.36" cy="52.96" fill="#04294b" r="33.4"/><circle cx="52.36" cy="52.96" fill="#04294c" r="32.95"/><circle cx="52.36" cy="52.96" fill="#042a4c" r="32.49"/><circle cx="52.36" cy="52.96" fill="#042a4d" r="32.03"/><circle cx="52.36" cy="52.96" fill="#042a4e" r="31.58"/><circle cx="52.36" cy="52.96" fill="#042b4e" r="31.12"/><circle cx="52.36" cy="52.96" fill="#042b4f" r="30.66"/><circle cx="52.36" cy="52.96" fill="#042c50" r="30.2"/><circle cx="52.36" cy="52.96" fill="#042c50" r="29.74"/><circle cx="52.36" cy="52.96" fill="#042c51" r="29.29"/><circle cx="52.36" cy="52.96" fill="#042d52" r="28.83"/><circle cx="52.36" cy="52.96" fill="#042d53" r="28.37"/><circle cx="52.36" cy="52.96" fill="#042d53" r="27.91"/><circle cx="52.36" cy="52.96" fill="#042e54" r="27.46"/><circle cx="52.36" cy="52.96" fill="#032e55" r="27"/><circle cx="52.36" cy="52.96" fill="#032e55" r="26.54"/><circle cx="52.36" cy="52.96" fill="#032f56" r="26.08"/><circle cx="52.36" cy="52.96" fill="#032f57" r="25.63"/><circle cx="52.36" cy="52.96" fill="#033058" r="25.17"/><circle cx="52.36" cy="52.96" fill="#023058" r="24.71"/><circle cx="52.36" cy="52.96" fill="#023059" r="24.25"/><circle cx="52.36" cy="52.96" fill="#02315a" r="23.8"/><circle cx="52.36" cy="52.96" fill="#01315a" r="23.34"/><circle cx="52.36" cy="52.96" fill="#00315b" r="22.88"/><circle cx="52.36" cy="52.96" fill="#00325c" r="22.42"/><circle cx="52.36" cy="52.96" fill="#00325d" r="21.97"/><circle cx="52.36" cy="52.96" fill="#00325d" r="21.51"/><circle cx="52.36" cy="52.96" fill="#00335e" r="21.05"/><circle cx="52.36" cy="52.96" fill="#00335f" r="20.59"/><circle cx="52.36" cy="52.96" fill="#003460" r="20.14"/><circle cx="52.36" cy="52.96" fill="#003460" r="19.68"/><circle cx="52.36" cy="52.96" fill="#003461" r="19.22"/><circle cx="52.36" cy="52.96" fill="#003562" r="18.76"/><circle cx="52.36" cy="52.96" fill="#003563" r="18.3"/><circle cx="52.36" cy="52.96" fill="#003563" r="17.85"/><circle cx="52.36" cy="52.96" fill="#003664" r="17.39"/><circle cx="52.36" cy="52.96" fill="#003665" r="16.93"/><circle cx="52.36" cy="52.96" fill="#003766" r="16.47"/><circle cx="52.36" cy="52.96" fill="#003766" r="16.02"/><circle cx="52.36" cy="52.96" fill="#003767" r="15.56"/><circle cx="52.36" cy="52.96" fill="#003868" r="15.1"/><circle cx="52.36" cy="52.96" fill="#003869" r="14.64"/><circle cx="52.36" cy="52.96" fill="#00386a" r="14.19"/><circle cx="52.36" cy="52.96" fill="#00396a" r="13.73"/><circle cx="52.36" cy="52.96" fill="#00396b" r="13.27"/><circle cx="52.36" cy="52.96" fill="#003a6c" r="12.81"/><circle cx="52.36" cy="52.96" fill="#003a6d" r="12.35"/><circle cx="52.36" cy="52.96" fill="#003a6e" r="11.9"/><circle cx="52.36" cy="52.96" fill="#003b6e" r="11.44"/><circle cx="52.36" cy="52.96" fill="#003b6f" r="10.98"/><circle cx="52.36" cy="52.96" fill="#003b70" r="10.52"/><circle cx="52.36" cy="52.96" fill="#003c71" r="10.07"/><circle cx="52.36" cy="52.96" fill="#003c72" r="9.61"/><circle cx="52.36" cy="52.96" fill="#003d72" r="9.15"/><circle cx="52.36" cy="52.96" fill="#003d73" r="8.69"/><circle cx="52.36" cy="52.96" fill="#003d74" r="8.24"/><circle cx="52.36" cy="52.96" fill="#003e75" r="7.78"/><circle cx="52.36" cy="52.96" fill="#003e76" r="7.32"/><circle cx="52.36" cy="52.96" fill="#003f77" r="6.86"/><circle cx="52.36" cy="52.96" fill="#003f77" r="6.41"/><circle cx="52.36" cy="52.96" fill="#003f78" r="5.95"/><circle cx="52.36" cy="52.96" fill="#004079" r="5.49"/><circle cx="52.36" cy="52.96" fill="#00407a" r="5.03"/><circle cx="52.36" cy="52.96" fill="#00417b" r="4.58"/><circle cx="52.36" cy="52.96" fill="#00417c" r="4.12"/><circle cx="52.36" cy="52.96" fill="#00417d" r="3.66"/><circle cx="52.36" cy="52.96" fill="#00427e" r="3.2"/><circle cx="52.36" cy="52.96" fill="#00427e" r="2.75"/><circle cx="52.36" cy="52.96" fill="#00437f" r="2.29"/><circle cx="52.36" cy="52.96" fill="#004380" r="1.83"/><circle cx="52.36" cy="52.96" fill="#004381" r="1.37"/><circle cx="52.36" cy="52.96" fill="#004482" r=".92"/><circle cx="52.36" cy="52.96" fill="#004483" r=".46"/></g><path d="m8.44 109.76v5.28h6.2v1.66h-6.2v6.49h-2.04v-15.09h9.3v1.66zm18.09 11.93c-.24.29-.52.53-.83.73-.33.21-.67.38-1.04.51s-.75.23-1.14.3-.78.1-1.17.1c-.7.01-1.39-.12-2.04-.37-.61-.24-1.16-.62-1.61-1.1-.47-.51-.83-1.12-1.06-1.78-.27-.79-.39-1.61-.38-2.44-.01-.71.11-1.41.34-2.09.21-.62.55-1.19.99-1.68.44-.48.97-.86 1.57-1.12.66-.28 1.37-.42 2.09-.4.61-.01 1.21.1 1.77.32.53.21 1.01.52 1.41.93.41.43.73.94.93 1.5.23.65.35 1.34.34 2.03.02.2-.01.4-.09.59-.09.11-.22.16-.36.15h-7.13c.01.6.1 1.19.28 1.76.14.46.38.88.69 1.25.29.33.65.58 1.05.75.44.17.9.25 1.37.25.41.01.82-.05 1.22-.16.3-.09.6-.21.88-.35.21-.11.42-.22.61-.35.12-.09.27-.15.43-.16.14-.01.28.06.36.18zm-1.52-5c0-.41-.06-.81-.18-1.2-.11-.35-.3-.66-.54-.94-.24-.26-.53-.47-.86-.61-.36-.15-.75-.22-1.15-.22-.79-.04-1.56.24-2.13.78-.56.6-.9 1.36-.97 2.18zm12.8-9.01v15.51h-1.11c-.24.02-.46-.15-.5-.39l-.17-1.3c-.44.53-.96.98-1.56 1.33-.62.34-1.31.52-2.02.5-.57.01-1.14-.11-1.67-.35-.5-.24-.94-.59-1.27-1.04-.38-.51-.65-1.09-.81-1.71-.2-.77-.3-1.56-.28-2.35-.01-.75.1-1.49.32-2.2.19-.64.5-1.24.91-1.76.39-.49.88-.9 1.45-1.17.6-.29 1.26-.44 1.93-.43.58-.02 1.15.1 1.68.33.47.22.9.54 1.25.92v-5.91zm-1.88 7.38c-.29-.42-.68-.76-1.14-.99-.43-.19-.9-.29-1.37-.28-.89-.05-1.75.35-2.29 1.06-.59.9-.87 1.96-.8 3.03-.01.6.05 1.2.18 1.79.09.44.27.85.53 1.22.22.31.51.55.85.7.36.15.75.23 1.15.22.57.01 1.13-.13 1.62-.42.49-.31.92-.72 1.27-1.19zm16.44 8.13h-1.81c-.33.02-.65-.15-.82-.43l-3.92-5.39c-.1-.15-.23-.27-.38-.36-.2-.09-.42-.12-.64-.11h-1.55v6.3h-2.03v-15.1h4.26c.83-.01 1.67.08 2.47.29.63.16 1.21.44 1.72.84.44.35.79.8 1.01 1.32.22.55.34 1.14.33 1.73.01.51-.08 1.02-.25 1.5-.17.46-.41.88-.73 1.25-.33.38-.73.7-1.17.94-.49.27-1.02.47-1.56.59.27.16.5.38.67.64zm-6.97-7.78c.53.01 1.06-.06 1.56-.22.42-.12.8-.33 1.14-.61.3-.26.54-.58.69-.94.16-.38.24-.8.23-1.21.05-.78-.28-1.54-.89-2.03-.79-.51-1.72-.75-2.65-.68h-2.23v5.7zm21.29 7.78h-1.58c-.16.01-.32-.04-.44-.14-.11-.09-.2-.21-.25-.35l-1.42-3.64h-6.77l-1.41 3.64c-.05.13-.13.25-.24.34-.13.1-.28.15-.44.15h-1.58l6.03-15.09h2.06zm-4.26-5.6-2.37-6.14c-.07-.18-.14-.4-.22-.64s-.15-.5-.22-.77c-.12.48-.27.96-.45 1.42l-2.37 6.12zm21.95-9.49v15.09h-1.79v-11.09c0-.15.01-.31.02-.47s.02-.34.04-.52l-5.18 9.44c-.13.29-.42.48-.74.47h-.29c-.32.01-.61-.18-.74-.47l-5.29-9.48c.04.34.06.69.06 1.03v11.09h-1.79v-15.09h1.51c.14-.01.29.01.42.05.13.06.23.17.28.29l5.21 9.29c.08.17.17.34.25.53.08.18.16.37.23.56.07-.19.14-.38.22-.56s.16-.36.25-.53l5.12-9.28c.05-.13.15-.23.28-.29.14-.04.28-.06.43-.05zm8.31 0c.84-.02 1.68.1 2.49.33.64.19 1.24.51 1.75.94.46.4.81.91 1.04 1.47.24.61.35 1.27.34 1.93.01.66-.12 1.32-.37 1.93-.24.58-.61 1.09-1.08 1.51-.51.44-1.11.78-1.76.99-.78.25-1.6.37-2.42.35h-2.42v5.65h-2.03v-15.1zm0 7.82c.52.01 1.04-.07 1.54-.23.42-.14.8-.36 1.13-.65.3-.27.54-.61.69-.99.16-.41.24-.84.23-1.27.05-.85-.28-1.67-.89-2.25-.77-.6-1.73-.89-2.7-.81h-2.42v6.21z" fill="#d9002f"/><path d="m77.47 58.52 10.36 19.98h-12.8l-9.53-18.19h-6.62v18.18h-11.57l-.01-25.11c0-.06-.01-.11-.01-.17s.01-.11.01-.17v-.27h.01c.2-1.94 1.67-3.51 3.6-3.82v-.04h.24c.15-.02.3-.02.45-.02.13 0 .26.01.4.02h.88c.1-.01.2-.01.3-.01l18.88-.01c1.04-.08 2.02-.49 2.82-1.16 2.12-1.79 2.39-4.96.6-7.08-.93-1.1-2.29-1.75-3.73-1.79l-1.52-.03h-42.4v10.07h14.8v11.37h-14.8v18.23h-11.57v-45.78c0-3.02 2.45-5.47 5.47-5.47h50.17c8.91.03 16.11 7.27 16.09 16.18-.02 6.74-4.21 12.75-10.52 15.09z" fill="#fff"/></svg>