<svg width="426" height="300" viewBox="0 0 426 300" fill="none" xmlns="http://www.w3.org/2000/svg">
	<mask id="mask0" mask-type="alpha" maskUnits="userSpaceOnUse" x="0" y="0" width="429" height="300">
		<rect width="428.486" height="300" fill="#C4C4C4"/>
	</mask>
	<g mask="url(#mask0)">
		<rect x="-21.0605" y="-10.2274" width="471.534" height="320.455" fill="url(#paint0_linear)"/>
	</g>
	<g clip-path="url(#clip0)">
		<path d="M212.869 65C214.018 66.071 215.547 65.6947 216.883 65.9697C222.052 67.0118 226.935 68.8138 231.042 72.1138C242.553 81.3552 255.822 84.9447 270.277 85.0677C274.025 85.1039 275.633 86.9058 275.655 90.9223C275.727 104.889 275.719 118.849 275.856 132.816C275.921 139.481 276.323 146.161 275.368 152.775C273.228 167.647 266.291 180.34 257.237 191.955C244.111 208.803 227.933 222.205 210.176 233.813C207.957 235.261 205.997 235.449 203.742 233.987C183.759 221.098 165.707 206.082 151.856 186.448C144.467 175.969 139.039 164.615 137.438 151.697C137.107 149.027 137.028 146.306 137.028 143.614C136.985 126.231 137 108.841 137.007 91.4506C137.007 86.3776 138.227 85.1835 143.354 85.0387C156.782 84.6552 169.384 81.7243 180.248 73.1776C185.784 68.821 192.103 66.2013 199.154 65.5355C199.534 65.5066 199.843 65.4053 199.972 65C204.274 65 208.568 65 212.869 65ZM246.545 154.179C248.785 154.179 251.019 154.179 253.259 154.179C253.345 154.179 253.438 154.179 253.525 154.179C256.641 154.013 258.666 151.849 258.479 148.701C258.386 147.094 258.142 145.481 257.804 143.903C251.966 116.541 227.179 98.8176 199.642 102.299C175.925 105.295 156.889 124.733 154.412 148.484C154.103 151.458 156.2 154.085 159.194 154.15C163.934 154.259 168.68 154.223 173.426 154.158C175.839 154.121 177.447 152.804 178.151 150.481C178.488 149.367 178.689 148.209 178.97 147.08C181.993 134.871 193.438 125.645 205.688 125.521C220.028 125.377 231.524 134.857 234.432 149.222C235.135 152.688 236.859 154.136 240.37 154.179C242.424 154.201 244.484 154.179 246.545 154.179ZM187.457 154.092C187.435 164.644 195.822 173.118 206.32 173.154C216.969 173.183 225.592 164.665 225.571 154.129C225.549 143.664 216.689 134.792 206.356 134.886C196.002 134.98 187.478 143.642 187.457 154.092Z" fill="white"/>
	</g>
	<defs>
		<linearGradient id="paint0_linear" x1="214.706" y1="-10.2274" x2="214.706" y2="310.227" gradientUnits="userSpaceOnUse">
			<stop stop-color="#243A5E"/>
			<stop offset="1" stop-color="#2B5376"/>
		</linearGradient>
		<clipPath id="clip0">
			<rect width="139" height="170" fill="white" transform="translate(137 65)"/>
		</clipPath>
	</defs>
</svg>
