<svg width="256" height="256" viewBox="0 0 256 256" fill="none" xmlns="http://www.w3.org/2000/svg">
<path d="M128 3.48161C144.794 3.48161 161.127 6.7584 176.487 13.2608C191.335 19.5584 204.647 28.5184 216.064 39.9361C227.482 51.3536 236.493 64.7168 242.74 79.5137C249.242 94.8736 252.518 111.156 252.518 128C252.518 141.108 250.522 153.907 246.528 166.246L221.236 153.088C223.437 144.947 224.512 136.499 224.512 128C224.512 114.944 221.953 102.298 216.934 90.4193C212.071 78.9505 205.108 68.6081 196.25 59.7505C187.392 50.8928 177.05 43.9296 165.581 39.0656C153.703 34.0481 141.057 31.488 128 31.488C114.944 31.488 102.298 34.0481 90.4193 39.0656C78.9505 43.9296 68.608 50.8928 59.7504 59.7505C50.8928 68.6081 43.9297 78.9505 39.0656 90.4193C34.048 102.298 31.488 114.944 31.488 128C31.488 136.55 32.6144 144.998 34.7648 153.139L9.47201 166.298C5.4784 153.959 3.4816 141.108 3.4816 128C3.4816 111.207 6.75841 94.8736 13.2608 79.5137C19.5585 64.6656 28.5184 51.3536 39.936 39.9361C51.3537 28.5184 64.7168 19.5072 79.5136 13.2608C94.8737 6.7584 111.207 3.48161 128 3.48161ZM128 0C57.2928 0 0 57.2928 0 128C0 143.155 2.6624 157.696 7.4752 171.213L38.8608 154.932C36.2496 146.279 34.9185 137.267 34.9185 128.051C34.9185 115.456 37.376 103.271 42.2401 91.8529C46.9504 80.7937 53.6576 70.8097 62.2081 62.2593C70.7584 53.7088 80.7425 47.0016 91.8017 42.2913C103.271 37.4272 115.456 34.9697 128 34.9697C140.545 34.9697 152.781 37.4272 164.198 42.2913C175.258 47.0016 185.242 53.7088 193.792 62.2593C202.342 70.8097 209.049 80.7937 213.76 91.8529C218.624 103.322 221.082 115.507 221.082 128.051C221.082 137.267 219.751 146.279 217.139 154.932L248.525 171.213C253.389 157.696 256 143.155 256 128C256 57.2928 198.708 0 128 0Z" fill="#1D1D1B"/>
<path d="M128 255.999C183.553 255.999 230.81 220.62 248.525 171.161L217.14 154.879C216.167 158.053 215.092 161.177 213.761 164.198C209.05 175.257 202.343 185.241 193.792 193.792C185.243 202.341 175.258 209.049 164.199 213.759C152.73 218.623 140.545 221.081 128 221.081C115.456 221.081 103.22 218.623 91.802 213.759C80.7428 209.049 70.7589 202.341 62.2084 193.792C53.6581 185.241 46.9508 175.257 42.2404 164.198C40.9604 161.126 39.834 158.053 38.8612 154.879L7.47559 171.161C25.1908 220.62 72.4484 255.999 128 255.999Z" fill="#1D1D1B"/>
<path d="M66.5077 113.256H62.8213L77.1572 80.0781H80.4341L94.6677 113.256H90.9301L87.2949 104.552H70.1429L66.5077 113.256ZM71.3716 101.428H86.0149L78.6932 83.8157L71.3716 101.428Z" fill="#1D1D1B"/>
<path d="M102.143 113.256H98.8145V80.0781H102.193V113.256H102.143Z" fill="#1D1D1B"/>
<path d="M138.035 107.878C137.472 108.698 136.806 109.517 135.987 110.285C135.167 111.053 134.246 111.719 133.223 112.282C132.198 112.845 131.021 113.306 129.74 113.665C128.46 113.972 127.078 114.176 125.594 114.176C123.085 114.176 120.78 113.716 118.681 112.845C116.531 111.975 114.739 110.746 113.203 109.21C111.666 107.673 110.49 105.831 109.619 103.68C108.749 101.581 108.339 99.2258 108.339 96.7171C108.339 94.2083 108.8 91.853 109.67 89.7539C110.541 87.6547 111.769 85.8114 113.305 84.2242C114.841 82.6882 116.685 81.4594 118.783 80.589C120.883 79.7186 123.187 79.2578 125.645 79.2578C126.873 79.2578 128.051 79.3602 129.228 79.6163C130.406 79.8722 131.481 80.2307 132.557 80.6914C133.58 81.1523 134.502 81.7155 135.372 82.3299C136.192 82.9954 136.908 83.7122 137.472 84.5315L134.655 86.5794C134.297 86.0675 133.836 85.5043 133.274 84.9922C132.71 84.4802 131.994 83.9683 131.225 83.6098C130.457 83.2003 129.587 82.893 128.665 82.6371C127.743 82.3811 126.77 82.2786 125.696 82.2786C123.545 82.2786 121.6 82.6882 119.91 83.4562C118.221 84.2242 116.787 85.2995 115.558 86.6306C114.38 87.9618 113.459 89.4978 112.844 91.2387C112.23 92.9795 111.922 94.8226 111.922 96.7682C111.922 98.7139 112.23 100.557 112.895 102.298C113.561 104.039 114.432 105.575 115.661 106.905C116.838 108.237 118.272 109.261 120.012 110.08C121.702 110.848 123.648 111.258 125.747 111.258C127.641 111.258 129.484 110.848 131.174 110.08C132.915 109.312 134.348 108.032 135.475 106.343L138.035 107.878Z" fill="#1D1D1B"/>
<path d="M142.59 80.0781H151.96C153.648 80.0781 155.185 80.2829 156.567 80.6413C157.95 80.9997 159.128 81.5629 160.1 82.2797C161.073 82.9965 161.841 83.9181 162.353 85.0446C162.865 86.1709 163.172 87.4509 163.172 88.9357C163.172 90.4205 162.916 91.7517 162.353 92.8269C161.789 93.9534 161.021 94.8749 160.048 95.5917C159.076 96.3085 157.899 96.8718 156.465 97.2813C155.082 97.6397 153.546 97.8445 151.857 97.8445H145.968V113.256H142.59V80.0781ZM145.968 94.9773H151.704C154.365 94.9773 156.362 94.4653 157.745 93.4413C159.128 92.4174 159.793 90.9325 159.793 88.9357C159.793 86.8877 159.076 85.3517 157.643 84.4301C156.209 83.4573 154.212 82.9965 151.652 82.9965H145.917V94.9773H145.968Z" fill="#1D1D1B"/>
<path d="M165.017 113.256H161.33L175.666 80.0781H178.943L193.177 113.256H189.439L185.804 104.552H168.652L165.017 113.256ZM169.881 101.428H184.524L177.202 83.8157L169.881 101.428Z" fill="#1D1D1B"/>
<path d="M80.0257 151.347C79.3601 150.476 78.4385 149.76 77.312 149.247C76.1857 148.735 75.1104 148.479 74.0865 148.479C73.5744 148.479 73.0113 148.531 72.4481 148.633C71.8849 148.735 71.424 148.889 70.9633 149.196C70.5025 149.452 70.1441 149.811 69.8368 150.22C69.5297 150.63 69.3761 151.193 69.3761 151.858C69.3761 152.421 69.4785 152.882 69.7345 153.241C69.9904 153.599 70.2977 153.958 70.7584 154.214C71.2193 154.47 71.7313 154.777 72.3969 154.982C73.0112 155.238 73.728 155.443 74.4961 155.699C75.6225 156.057 76.8001 156.467 78.0288 156.928C79.2577 157.388 80.3328 158.003 81.3569 158.72C82.3809 159.487 83.2 160.409 83.8657 161.484C84.5313 162.61 84.8385 163.993 84.8385 165.632C84.8385 167.525 84.4801 169.164 83.7633 170.598C83.0465 171.98 82.1249 173.158 80.9472 174.028C79.7697 174.949 78.3873 175.615 76.8513 176.025C75.3153 176.486 73.728 176.69 72.1408 176.69C69.7857 176.69 67.4817 176.281 65.2289 175.461C63.0273 174.642 61.184 173.465 59.6992 171.929L64.9729 166.604C65.7921 167.628 66.8673 168.447 68.1985 169.113C69.5297 169.778 70.8609 170.137 72.1408 170.137C72.7553 170.137 73.3185 170.086 73.8817 169.932C74.4448 169.83 74.9569 169.625 75.3665 169.318C75.776 169.062 76.1345 168.652 76.3905 168.191C76.6464 167.73 76.7489 167.167 76.7489 166.501C76.7489 165.888 76.5952 165.324 76.2881 164.915C75.9809 164.454 75.5201 164.095 74.9569 163.737C74.3936 163.379 73.6768 163.071 72.8064 162.764C71.9361 162.457 70.9633 162.15 69.888 161.791C68.8129 161.433 67.7888 161.023 66.7649 160.562C65.7409 160.101 64.8192 159.487 64.0512 158.771C63.232 158.054 62.6176 157.132 62.1057 156.108C61.6449 155.084 61.3889 153.804 61.3889 152.268C61.3889 150.425 61.7472 148.838 62.5152 147.558C63.2832 146.226 64.2561 145.151 65.4848 144.332C66.7137 143.513 68.0961 142.848 69.6321 142.489C71.1681 142.079 72.7041 141.926 74.2912 141.926C76.1857 141.926 78.08 142.284 80.0257 142.95C81.9713 143.616 83.7121 144.639 85.1457 146.021L80.0257 151.347Z" fill="#1D1D1B"/>
<path d="M123.699 159.182C123.699 161.793 123.238 164.199 122.316 166.401C121.395 168.552 120.166 170.446 118.528 171.981C116.941 173.518 114.995 174.747 112.793 175.566C110.592 176.385 108.185 176.846 105.574 176.846C102.963 176.846 100.608 176.436 98.3548 175.566C96.1532 174.747 94.2589 173.518 92.6204 171.981C91.0332 170.446 89.7533 168.552 88.8316 166.401C87.9101 164.25 87.4492 161.844 87.4492 159.182C87.4492 156.519 87.9101 154.113 88.8316 151.963C89.7533 149.812 90.982 148.021 92.6204 146.484C94.2077 144.999 96.1532 143.822 98.3548 143.002C100.556 142.183 102.963 141.773 105.574 141.773C108.185 141.773 110.592 142.183 112.793 143.002C114.995 143.822 116.941 144.948 118.528 146.484C120.115 147.969 121.395 149.812 122.316 151.963C123.238 154.113 123.699 156.519 123.699 159.182ZM115.097 159.182C115.097 157.748 114.841 156.417 114.38 155.137C113.919 153.908 113.254 152.833 112.435 151.911C111.616 151.041 110.592 150.324 109.414 149.812C108.236 149.3 106.956 149.044 105.522 149.044C104.09 149.044 102.861 149.3 101.683 149.812C100.505 150.324 99.5325 151.041 98.6621 151.911C97.8429 152.782 97.1773 153.857 96.7165 155.137C96.2556 156.365 96.0509 157.748 96.0509 159.182C96.0509 160.667 96.3068 162.049 96.7677 163.329C97.2285 164.609 97.8941 165.684 98.7133 166.606C99.5325 167.527 100.556 168.244 101.683 168.756C102.861 169.268 104.141 169.525 105.522 169.525C106.905 169.525 108.185 169.268 109.363 168.756C110.541 168.244 111.514 167.527 112.384 166.606C113.202 165.684 113.868 164.609 114.329 163.329C114.841 162.049 115.097 160.667 115.097 159.182Z" fill="#1D1D1B"/>
<path d="M151.911 175.309C149.76 176.282 147.252 176.793 144.436 176.793C141.875 176.793 139.521 176.384 137.319 175.514C135.168 174.694 133.274 173.465 131.687 171.929C130.1 170.393 128.819 168.551 127.949 166.4C127.027 164.249 126.566 161.895 126.566 159.283C126.566 156.62 127.027 154.215 127.949 152.064C128.871 149.913 130.151 148.07 131.789 146.535C133.427 144.998 135.322 143.872 137.524 143.053C139.726 142.233 142.08 141.824 144.589 141.824C146.945 141.824 149.248 142.233 151.501 143.053C153.754 143.872 155.597 145.101 157.031 146.688L151.552 152.115C150.784 151.091 149.811 150.323 148.582 149.811C147.354 149.299 146.125 149.043 144.845 149.043C143.463 149.043 142.131 149.299 140.954 149.811C139.777 150.323 138.753 151.04 137.933 151.962C137.114 152.883 136.448 153.959 135.987 155.187C135.527 156.416 135.271 157.798 135.271 159.232C135.271 160.717 135.527 162.099 135.987 163.379C136.448 164.608 137.114 165.683 137.933 166.605C138.753 167.475 139.777 168.192 140.902 168.704C142.08 169.216 143.309 169.471 144.692 169.471C146.279 169.471 147.662 169.165 148.838 168.551C150.016 167.936 150.989 167.117 151.706 166.093L157.287 171.366C155.853 173.005 154.062 174.336 151.911 175.309Z" fill="#1D1D1B"/>
<path d="M172.236 175.871V169.318L185.191 157.644C186.01 156.876 186.675 156.057 187.136 155.238C187.648 154.418 187.904 153.548 187.904 152.525C187.904 151.347 187.545 150.374 186.777 149.657C186.01 148.94 185.037 148.582 183.757 148.582C182.425 148.582 181.35 149.043 180.531 149.964C179.711 150.886 179.199 152.115 179.047 153.599L171.52 152.576C171.725 150.886 172.185 149.401 172.902 148.07C173.619 146.738 174.541 145.612 175.667 144.691C176.794 143.769 178.074 143.052 179.558 142.592C180.992 142.08 182.528 141.875 184.167 141.875C185.703 141.875 187.187 142.08 188.621 142.489C190.054 142.899 191.334 143.513 192.461 144.384C193.588 145.203 194.508 146.278 195.174 147.558C195.84 148.838 196.198 150.323 196.198 152.064C196.198 153.241 196.045 154.316 195.737 155.289C195.43 156.262 194.969 157.132 194.457 157.952C193.895 158.771 193.28 159.539 192.563 160.205C191.847 160.921 191.13 161.586 190.362 162.303L182.681 169.164H196.249V176.025H172.236V175.871Z" fill="#1D1D1B"/>
<path d="M193.176 127.234H62.8213V128.667H193.176V127.234Z" fill="#1D1D1B"/>
<path d="M25.5999 124.006L25.4975 125.286L14.3359 119.398L14.4383 118.271L26.4191 114.227L26.3167 115.557L23.1935 116.582L22.7327 122.572L25.5999 124.006ZM21.6064 122.009L22.0159 116.889L15.6672 118.937L21.6064 122.009Z" fill="#1D1D1B"/>
<path d="M26.8802 111.667L26.6754 112.843L15.2578 111.103L15.4626 109.926L26.8802 111.667Z" fill="#1D1D1B"/>
<path d="M27.648 99.0221C27.904 99.2781 28.1087 99.5854 28.3136 99.8924C28.5184 100.199 28.6719 100.609 28.7743 100.967C28.8768 101.377 28.928 101.787 28.9792 102.248C28.9792 102.708 28.928 103.169 28.8255 103.681C28.6208 104.552 28.3136 105.269 27.8528 105.935C27.392 106.599 26.8288 107.111 26.1632 107.521C25.4976 107.931 24.7808 108.187 24.0128 108.289C23.2448 108.391 22.3744 108.391 21.5552 108.187C20.7359 107.982 19.9167 107.675 19.3023 107.162C18.6368 106.702 18.1248 106.139 17.7151 105.474C17.3056 104.808 17.0495 104.091 16.8959 103.323C16.7424 102.555 16.7936 101.736 16.9983 100.865C17.1008 100.455 17.2544 100.046 17.408 99.6874C17.6127 99.3293 17.8175 98.9709 18.0224 98.6637C18.2784 98.3565 18.5343 98.0492 18.7904 97.8445C19.0975 97.5885 19.4048 97.4349 19.712 97.2812L20.1728 98.4077C19.9679 98.4589 19.7631 98.6125 19.5072 98.766C19.3023 98.9197 19.0463 99.1245 18.8416 99.3293C18.6368 99.5854 18.4831 99.8414 18.2784 100.097C18.1248 100.404 18.0224 100.711 17.92 101.07C17.7663 101.787 17.7151 102.504 17.8688 103.118C18.0224 103.784 18.2272 104.347 18.5856 104.859C18.944 105.371 19.4048 105.781 19.9167 106.139C20.48 106.498 21.0432 106.753 21.7088 106.906C22.3744 107.06 23.04 107.111 23.6543 107.009C24.3199 106.906 24.8832 106.753 25.4464 106.447C26.0096 106.139 26.4703 105.73 26.88 105.218C27.2895 104.706 27.5456 104.091 27.7504 103.374C27.904 102.708 27.904 102.094 27.8016 101.428C27.648 100.763 27.3407 100.199 26.88 99.6874L27.648 99.0221Z" fill="#1D1D1B"/>
<path d="M18.9951 94.3616L20.0703 91.2384C20.275 90.6752 20.4799 90.2143 20.7871 89.7536C21.043 89.3439 21.3503 88.9856 21.7087 88.7807C22.0671 88.5248 22.4766 88.3712 22.8863 88.32C23.2958 88.2688 23.7567 88.32 24.2687 88.4736C24.7806 88.6271 25.1903 88.8831 25.4974 89.1904C25.8047 89.4975 26.0095 89.856 26.163 90.2655C26.3167 90.6752 26.3679 91.136 26.3167 91.6479C26.2654 92.16 26.163 92.672 25.9583 93.2351L25.2927 95.1808L30.4127 96.9215L30.0543 98.048L18.9951 94.3616ZM24.3199 94.9248L24.9855 93.0303C25.2927 92.16 25.3439 91.4432 25.1391 90.8287C24.9343 90.2655 24.5247 89.856 23.8591 89.6512C23.1934 89.3951 22.579 89.4975 22.1183 89.856C21.6575 90.2143 21.2479 90.8287 20.9918 91.6991L20.3262 93.5936L24.3199 94.9248Z" fill="#1D1D1B"/>
<path d="M32.513 90.7273L32.001 91.9049L23.3994 82.6377L23.8602 81.5625L36.5065 81.6649L35.9946 82.8424L32.6666 82.7912L30.2602 88.2697L32.513 90.7273ZM29.441 87.5017L31.489 82.8424L24.8329 82.6889L29.441 87.5017Z" fill="#1D1D1B"/>
<path d="M33.8424 67.0717C33.4329 67.1229 33.0232 67.2253 32.6136 67.4301C32.204 67.6349 31.8968 67.9933 31.5896 68.4541C31.436 68.7101 31.3337 68.9661 31.2313 69.2733C31.1288 69.5805 31.1288 69.8877 31.1288 70.1438C31.18 70.4509 31.2313 70.7069 31.3849 71.0141C31.5384 71.2701 31.7944 71.5262 32.1017 71.7309C32.4088 71.9357 32.7161 72.0381 32.972 72.0381C33.228 72.0381 33.5353 71.9869 33.7912 71.8845C34.0472 71.7821 34.3033 71.6285 34.5592 71.4237C34.8152 71.2189 35.0713 71.0141 35.3272 70.8094C35.6345 70.5533 35.9928 70.2461 36.3513 69.9901C36.7096 69.7341 37.068 69.5293 37.4264 69.3757C37.7848 69.2221 38.1944 69.1709 38.6553 69.1709C39.0648 69.1709 39.5257 69.3758 40.0377 69.6829C40.5496 69.9901 40.9081 70.3485 41.164 70.7581C41.42 71.1677 41.5737 71.5774 41.5737 72.0381C41.6249 72.4989 41.5737 72.9085 41.4712 73.3693C41.3688 73.8301 41.164 74.2397 40.9081 74.6493C40.7032 74.9565 40.4984 75.2126 40.2425 75.4685C39.9864 75.7245 39.7304 75.9806 39.4233 76.1341C39.116 76.3389 38.8089 76.4925 38.5016 76.5949C38.1944 76.6974 37.8361 76.7997 37.4776 76.7997L37.3752 75.5197C37.8361 75.5197 38.348 75.4173 38.8089 75.1613C39.2696 74.9053 39.6792 74.547 39.9864 74.0349C40.1401 73.779 40.2425 73.5229 40.3448 73.2157C40.4472 72.9085 40.4472 72.6013 40.396 72.2942C40.3448 71.9869 40.2937 71.6797 40.0889 71.4237C39.9352 71.1677 39.6792 70.9117 39.3721 70.7069C39.0136 70.5021 38.7065 70.3997 38.3992 70.3997C38.092 70.3997 37.7848 70.4509 37.4776 70.6045C37.1705 70.7581 36.9144 70.9117 36.6073 71.1165C36.3513 71.3213 36.044 71.5774 35.7369 71.8333C35.4296 72.0893 35.1225 72.3454 34.8152 72.6013C34.508 72.8573 34.1497 73.011 33.7912 73.1133C33.4329 73.2157 33.0232 73.2669 32.6648 73.2669C32.2552 73.2157 31.8456 73.0622 31.3849 72.8061C30.924 72.4989 30.5657 72.1405 30.3096 71.7821C30.1048 71.3725 29.9512 70.9629 29.9001 70.5021C29.8489 70.0413 29.9001 69.6317 30.0536 69.1709C30.156 68.7613 30.3608 68.3517 30.5657 67.9933C30.9752 67.3277 31.436 66.8157 31.9993 66.5085C32.5112 66.2013 33.0232 65.9965 33.4841 65.9453L33.8424 67.0717Z" fill="#1D1D1B"/>
<path d="M44.7484 61.5411C44.7996 61.5923 44.8508 61.6435 44.9532 61.6947C45.0044 61.7459 45.1067 61.7971 45.1579 61.8995L41.3691 67.0195C41.6764 67.2243 42.0348 67.378 42.3932 67.4803C42.7516 67.5827 43.11 67.5827 43.4684 67.5315C43.8268 67.4803 44.134 67.378 44.4923 67.1731C44.7996 66.9683 45.1067 66.7635 45.3116 66.4051C45.67 65.9443 45.8235 65.4835 45.8747 64.9715C45.9259 64.4595 45.8747 64.0499 45.7212 63.6403L46.7451 63.3843C46.95 64.1011 46.95 64.7667 46.8476 65.3299C46.7451 65.8932 46.4892 66.4563 46.0796 66.9683C45.7212 67.4291 45.3628 67.7875 44.902 68.0435C44.4411 68.2995 43.9804 68.5043 43.4684 68.5555C42.9563 68.6067 42.4444 68.6067 41.9324 68.4531C41.4203 68.2995 40.9084 68.0948 40.4476 67.7363C39.9867 67.378 39.6284 66.9683 39.3211 66.5587C39.0652 66.0979 38.8604 65.6371 38.758 65.1251C38.6555 64.6131 38.7068 64.1523 38.8092 63.6403C38.9116 63.1283 39.1675 62.6675 39.4748 62.2579C39.8332 61.7971 40.2428 61.3875 40.6523 61.1827C41.1132 60.9267 41.5227 60.7731 41.9836 60.7731C42.4444 60.7219 42.9051 60.7731 43.366 60.9267C43.878 61.0291 44.2876 61.2339 44.7484 61.5411ZM43.7755 62.2579C43.1612 61.8483 42.5468 61.6947 41.9324 61.7459C41.318 61.7971 40.7547 62.1555 40.2428 62.8211C40.0379 63.1283 39.8844 63.4355 39.782 63.7939C39.6796 64.1523 39.6796 64.4596 39.7308 64.8179C39.782 65.1764 39.8844 65.4835 40.0379 65.7395C40.1916 66.0467 40.3964 66.3027 40.6523 66.5075L43.7755 62.2579Z" fill="#1D1D1B"/>
<path d="M44.084 58.1642C43.8279 57.9594 43.572 57.7547 43.3672 57.601L44.0327 56.833C44.1864 56.9354 44.3911 57.089 44.5959 57.2426C44.8007 57.3962 44.9544 57.5498 45.0568 57.6522C44.852 57.1914 44.8007 56.7306 44.852 56.2186C44.9032 55.7066 45.1591 55.2458 45.5175 54.8362C45.62 54.7338 45.7224 54.6314 45.7736 54.529C45.8759 54.4266 45.9271 54.3754 46.0295 54.3242L46.7463 55.1434C46.6951 55.1946 46.5928 55.2458 46.4904 55.3482C46.388 55.4506 46.2856 55.5531 46.1831 55.6554C45.9783 55.8602 45.8248 56.1162 45.7736 56.4234C45.6712 56.6794 45.6712 56.9867 45.7224 57.2938C45.7736 57.601 45.8759 57.9082 46.0807 58.2666C46.2856 58.625 46.5928 58.9322 46.9511 59.2906L49.9207 61.8506L49.204 62.721L44.6471 58.8298C44.5447 58.5227 44.34 58.369 44.084 58.1642Z" fill="#1D1D1B"/>
<path d="M46.1824 50.0212C46.3359 50.1748 46.4383 50.3795 46.4383 50.5844C46.4383 50.7892 46.3871 50.9939 46.2336 51.1475C46.08 51.3012 45.9264 51.3524 45.7215 51.4036C45.5168 51.4036 45.312 51.3524 45.1583 51.1987C45.0047 51.0451 44.9023 50.8404 44.9023 50.6356C44.9023 50.4307 44.9535 50.226 45.1071 50.0724C45.2608 49.9188 45.4144 49.8676 45.6191 49.8164C45.8239 49.8164 46.0288 49.8676 46.1824 50.0212ZM53.7599 57.4452L52.9919 58.2644L47.4112 52.9908L48.1792 52.1716L53.7599 57.4452Z" fill="#1D1D1B"/>
<path d="M57.908 53.3479L57.0375 54.2183L49.46 50.8392L50.3815 49.9687L56.6792 52.9383L54.0167 46.4872L54.8871 45.668L57.908 53.3479Z" fill="#1D1D1B"/>
<path d="M61.5422 42.4448C61.235 42.3424 60.8254 42.3424 60.467 42.3936C60.0574 42.496 59.699 42.6497 59.3918 42.9057C59.0334 43.2128 58.7774 43.5201 58.6238 43.8784C58.4702 44.2369 58.3678 44.5952 58.3166 44.9537C58.3166 45.312 58.3678 45.7217 58.4702 46.08C58.6238 46.4385 58.8286 46.7968 59.0846 47.1553C59.3406 47.5136 59.6478 47.7697 60.0062 47.9745C60.3646 48.1792 60.723 48.2816 61.0814 48.384C61.4398 48.4353 61.8494 48.4353 62.2078 48.3328C62.5662 48.2304 62.9246 48.0257 63.283 47.7697C63.6414 47.4624 63.9486 47.1041 64.051 46.7456C64.2046 46.3873 64.2558 46.0288 64.2558 45.6705L65.2798 45.6193C65.2798 46.1312 65.1774 46.6433 64.9726 47.1553C64.7678 47.6672 64.4094 48.0769 63.8974 48.5377C63.4366 48.9472 62.9246 49.2033 62.4126 49.3569C61.9006 49.5105 61.3886 49.5617 60.8766 49.5105C60.3646 49.4593 59.9038 49.3057 59.4429 49.0496C58.9822 48.7937 58.5726 48.4353 58.2142 47.9745C57.8558 47.5136 57.5998 47.0529 57.4462 46.5409C57.2926 46.0288 57.2414 45.5169 57.2926 45.0049C57.3438 44.4928 57.4974 44.0321 57.7534 43.5201C58.0094 43.0592 58.3678 42.5985 58.8798 42.1889C59.2894 41.8817 59.7502 41.6256 60.3134 41.472C60.8765 41.3185 61.3886 41.2673 61.9518 41.4209L61.5422 42.4448Z" fill="#1D1D1B"/>
<path d="M70.4519 38.3485C70.5031 38.3997 70.5543 38.5021 70.6056 38.5533C70.6568 38.6045 70.708 38.7068 70.7591 38.8092L65.5368 42.3932C65.7415 42.7005 66.0487 42.9565 66.3559 43.1612C66.6631 43.366 66.9704 43.4685 67.3287 43.5709C67.6872 43.6221 68.0455 43.6221 68.404 43.5709C68.7623 43.5197 69.1208 43.366 69.4279 43.1101C69.8888 42.8029 70.2471 42.3932 70.4519 41.9325C70.6568 41.4717 70.708 41.062 70.708 40.6013L71.7831 40.6525C71.7319 41.3693 71.5783 42.0349 71.2711 42.5468C70.9639 43.0589 70.5543 43.5197 70.0423 43.878C69.5815 44.1853 69.0695 44.4413 68.5575 44.5437C68.0455 44.646 67.5335 44.646 67.0216 44.5437C66.5095 44.4413 66.0487 44.2365 65.5879 43.9804C65.1271 43.6733 64.7688 43.3148 64.4103 42.8541C64.1032 42.3932 63.8471 41.8812 63.7447 41.3693C63.6423 40.8573 63.5911 40.3452 63.6935 39.8333C63.7959 39.3213 63.9495 38.8604 64.2055 38.4509C64.4615 38.0412 64.82 37.6317 65.2807 37.3244C65.7927 36.9661 66.2536 36.7612 66.7655 36.6588C67.2775 36.5564 67.7384 36.5564 68.1991 36.6588C68.6599 36.7612 69.0695 36.9661 69.4791 37.2732C69.8375 37.5293 70.1959 37.8877 70.4519 38.3485ZM69.3255 38.6557C68.8647 38.0924 68.3527 37.7341 67.7384 37.5805C67.1239 37.4268 66.4583 37.5805 65.7927 38.0412C65.4856 38.2461 65.2295 38.5021 65.0759 38.8092C64.8711 39.1165 64.7688 39.4236 64.7176 39.7309C64.6663 40.0381 64.6663 40.3964 64.7176 40.7037C64.7688 41.0108 64.8711 41.3181 65.0759 41.6253L69.3255 38.6557Z" fill="#1D1D1B"/>
<path d="M85.7598 28.1585C86.1694 28.9777 86.3742 29.7457 86.4254 30.5649C86.4765 31.3841 86.3742 32.1521 86.1182 32.8689C85.8621 33.5857 85.5038 34.2513 84.9406 34.8657C84.4285 35.4801 83.7629 35.9409 82.9949 36.3505C82.2269 36.7089 81.4589 36.9649 80.6397 37.0161C79.8205 37.0673 79.1037 36.9649 78.3358 36.7089C77.6189 36.4529 76.9533 36.0945 76.339 35.5313C75.7246 35.0194 75.2638 34.3537 74.8541 33.5346C74.4446 32.7153 74.2398 31.9473 74.1886 31.1281C74.1373 30.3089 74.2398 29.5409 74.4958 28.8241C74.7517 28.1073 75.1102 27.4417 75.6734 26.8273C76.1853 26.2129 76.851 25.7521 77.619 25.3425C78.3869 24.9841 79.1549 24.7281 79.9741 24.6769C80.7933 24.6257 81.5101 24.7281 82.2781 24.9841C82.9949 25.2401 83.6605 25.5985 84.275 26.1617C84.8894 26.7249 85.4014 27.3905 85.7598 28.1585ZM84.6334 28.7217C84.3261 28.1073 83.9678 27.5953 83.507 27.1345C83.0462 26.6737 82.5342 26.3153 81.9198 26.1105C81.3565 25.8545 80.7421 25.7521 80.0765 25.8033C79.411 25.8033 78.7454 26.0081 78.0798 26.3153C77.4142 26.6225 76.851 27.0833 76.4414 27.5441C76.0318 28.0561 75.7246 28.6193 75.5709 29.1825C75.4173 29.7969 75.3662 30.4113 75.4173 31.0257C75.4685 31.6913 75.6734 32.3057 75.9806 32.9201C76.2877 33.5346 76.6462 34.0465 77.107 34.5073C77.5678 34.9681 78.0798 35.2753 78.643 35.5313C79.2061 35.7362 79.8206 35.8897 80.4862 35.8385C81.1518 35.8385 81.8174 35.6337 82.483 35.3265C83.1486 35.0194 83.7117 34.5585 84.1214 34.0977C84.531 33.5857 84.8382 33.0225 84.9917 32.4593C85.1453 31.8449 85.1965 31.2305 85.1453 30.6161C85.1453 29.9505 84.9406 29.3361 84.6334 28.7217Z" fill="#1D1D1B"/>
<path d="M87.7568 26.4693C87.6544 26.1621 87.5008 25.9062 87.3984 25.6501L88.3712 25.2917C88.4736 25.4965 88.576 25.7013 88.6784 25.9062C88.7807 26.1621 88.832 26.3157 88.9344 26.4693H88.9856C89.0368 25.9574 89.1904 25.4965 89.4975 25.087C89.8048 24.6773 90.2144 24.3702 90.7264 24.1653C90.88 24.1141 90.9824 24.0629 91.0848 24.0629C91.1872 24.0117 91.2896 24.0117 91.4432 24.0117L91.6992 25.0358C91.648 25.0358 91.5456 25.0358 91.392 25.087C91.2384 25.1382 91.0848 25.1894 90.9312 25.2406C90.6752 25.3429 90.4192 25.4965 90.2144 25.7013C90.0096 25.9062 89.856 26.1621 89.7536 26.4181C89.6512 26.7254 89.6 27.0325 89.6 27.4422C89.6 27.8517 89.7024 28.2613 89.9072 28.7222L91.2896 32.4086L90.2656 32.8181L88.0641 27.1861C88.0128 27.0325 87.9104 26.7765 87.7568 26.4693Z" fill="#1D1D1B"/>
<path d="M96.0497 32.2564C96.4594 32.5635 96.9714 32.7683 97.5345 32.8708C98.0977 32.9732 98.7121 32.9732 99.2754 32.7683C99.787 32.6147 100.197 32.4099 100.555 32.154C100.863 31.8979 101.119 31.5908 101.272 31.2835C101.426 30.9763 101.477 30.618 101.477 30.2083C101.477 29.85 101.426 29.4403 101.324 29.0307L100.863 27.6484H100.811C100.658 28.2115 100.351 28.6724 99.941 29.0819C99.4801 29.4915 99.0193 29.7475 98.4562 29.9524C97.893 30.106 97.3297 30.2083 96.8177 30.1571C96.3058 30.106 95.8449 29.9524 95.3841 29.7475C94.9745 29.4915 94.5649 29.1844 94.2577 28.7747C93.9506 28.3651 93.6945 27.9044 93.5409 27.3411C93.3874 26.8291 93.3362 26.3172 93.3874 25.8051C93.4386 25.2931 93.5921 24.8324 93.7969 24.3715C94.0018 23.9107 94.3601 23.5523 94.7698 23.1939C95.1793 22.8355 95.6913 22.5796 96.2546 22.4259C96.7665 22.2723 97.3297 22.2211 97.9441 22.3235C98.5074 22.4259 99.0193 22.682 99.4801 23.0403H99.5313L99.173 21.7604L100.248 21.4531L102.399 28.7235C102.501 29.1332 102.604 29.5427 102.604 30.0548C102.604 30.5155 102.553 31.0275 102.348 31.4884C102.143 31.9491 101.836 32.4099 101.426 32.7683C100.965 33.1779 100.351 33.4851 99.5313 33.7412C98.8657 33.9459 98.1489 33.9971 97.4833 33.9459C96.7665 33.8435 96.1521 33.6388 95.589 33.3315L96.0497 32.2564ZM94.6673 26.9316C94.7698 27.3411 94.9745 27.6484 95.1793 27.9555C95.3841 28.2627 95.6914 28.5188 95.9985 28.7235C96.3058 28.9283 96.6641 29.0307 97.0738 29.0819C97.4833 29.1332 97.893 29.0819 98.3025 28.9795C98.7121 28.8771 99.0705 28.6724 99.3778 28.4164C99.685 28.1603 99.941 27.9044 100.095 27.5459C100.248 27.1876 100.402 26.8803 100.402 26.4707C100.453 26.0611 100.402 25.6516 100.248 25.2419C100.146 24.8324 99.941 24.5251 99.685 24.218C99.4289 23.9107 99.173 23.6547 98.8145 23.5011C98.5074 23.2964 98.1489 23.1939 97.7394 23.1427C97.3297 23.0915 96.9714 23.1427 96.5617 23.2452C96.1009 23.3988 95.7425 23.5523 95.4353 23.8083C95.1281 24.0644 94.9234 24.3715 94.7698 24.6787C94.6161 24.9859 94.5137 25.3443 94.5137 25.7539C94.5137 26.1635 94.5649 26.5731 94.6673 26.9316Z" fill="#1D1D1B"/>
<path d="M108.391 22.4252C108.237 21.7597 107.982 21.35 107.572 21.0941C107.163 20.838 106.651 20.7868 105.985 20.9404C105.524 21.0429 105.114 21.1965 104.756 21.4524C104.397 21.7084 104.141 21.9645 103.885 22.2716L103.117 21.6572C103.373 21.2989 103.732 20.9404 104.193 20.6332C104.653 20.3261 105.217 20.1212 105.882 19.9676C106.292 19.8652 106.702 19.8652 107.06 19.9164C107.419 19.9676 107.777 20.07 108.084 20.2236C108.391 20.3773 108.647 20.6332 108.903 20.9404C109.107 21.2477 109.261 21.6572 109.364 22.118L110.029 25.3948C110.08 25.7021 110.183 25.958 110.234 26.2653C110.336 26.5724 110.388 26.8284 110.49 27.0333L109.517 27.238C109.466 27.0845 109.364 26.8796 109.312 26.6748C109.261 26.4701 109.21 26.2653 109.159 26.0604H109.107C108.851 26.6236 108.544 27.0845 108.187 27.3916C107.777 27.6989 107.316 27.9037 106.702 28.0572C106.395 28.1084 106.087 28.1596 105.78 28.1084C105.473 28.1084 105.166 28.006 104.858 27.9037C104.551 27.7501 104.295 27.5964 104.09 27.3404C103.885 27.0845 103.732 26.726 103.629 26.3165C103.527 25.7533 103.578 25.2412 103.783 24.8317C103.988 24.422 104.346 24.1149 104.807 23.8588C105.268 23.6028 105.831 23.3469 106.446 23.1932C107.06 23.0396 107.726 22.8348 108.391 22.7325V22.4252ZM108.288 23.6028C107.828 23.7052 107.367 23.8076 106.958 23.91C106.497 24.0637 106.087 24.2173 105.78 24.3708C105.422 24.5756 105.166 24.7805 104.961 25.0364C104.756 25.2924 104.705 25.5997 104.756 25.958C104.807 26.2141 104.91 26.4189 105.063 26.6236C105.217 26.7772 105.37 26.8796 105.575 26.9821C105.78 27.0845 105.985 27.0845 106.19 27.0845C106.395 27.0845 106.599 27.0845 106.855 27.0333C107.265 26.9309 107.572 26.8284 107.828 26.6236C108.084 26.4189 108.339 26.2141 108.493 25.9068C108.647 25.6509 108.749 25.3436 108.8 25.0364C108.851 24.7293 108.851 24.3708 108.749 24.0637L108.647 23.5005L108.288 23.6028Z" fill="#1D1D1B"/>
<path d="M112.795 18.9443C112.846 19.1491 112.898 19.3538 112.949 19.6099C113 19.8659 113 20.0706 113.051 20.2242H113.102C113.256 19.7635 113.562 19.3538 114.023 18.9955C114.484 18.637 114.996 18.4835 115.508 18.3811C116.481 18.2787 117.249 18.4835 117.761 18.9955C118.324 19.5074 118.632 20.2242 118.734 21.1971L119.297 25.8563L118.171 26.0098L117.659 21.8115C117.608 21.4019 117.556 21.0435 117.454 20.7362C117.352 20.4291 117.198 20.173 117.044 19.9171C116.839 19.7123 116.635 19.5587 116.327 19.4562C116.071 19.3538 115.713 19.3538 115.303 19.3538C114.996 19.405 114.74 19.4562 114.484 19.6099C114.228 19.7635 113.972 19.9682 113.818 20.2242C113.613 20.4803 113.511 20.8386 113.409 21.1971C113.307 21.6066 113.307 22.0163 113.358 22.5283L113.818 26.4195L112.693 26.5731L111.976 20.6339C111.976 20.4291 111.925 20.173 111.873 19.8147C111.822 19.5074 111.771 19.2003 111.72 18.9443H112.795Z" fill="#1D1D1B"/>
<path d="M122.367 15.1039C122.367 15.3087 122.316 15.5136 122.162 15.6672C122.009 15.8207 121.855 15.9231 121.65 15.9231C121.446 15.9231 121.292 15.8719 121.087 15.7184C120.933 15.5648 120.831 15.4112 120.831 15.1551C120.831 14.9504 120.882 14.7456 121.036 14.5919C121.19 14.4383 121.343 14.3359 121.548 14.3359C121.753 14.3359 121.906 14.3871 122.111 14.5407C122.265 14.6944 122.367 14.8992 122.367 15.1039ZM122.777 25.7536L121.65 25.8048L121.241 18.1247L122.367 18.0735L122.777 25.7536Z" fill="#1D1D1B"/>
<path d="M130.305 18.6864L125.798 24.6768L130.561 24.5744V25.5472L124.313 25.6496V24.8816L128.768 18.84L124.416 18.8912V17.9696L130.254 17.8672L130.305 18.6864Z" fill="#1D1D1B"/>
<path d="M137.42 21.0427C137.472 20.3771 137.318 19.8652 137.011 19.5068C136.704 19.1484 136.192 18.9435 135.526 18.8923C135.065 18.8411 134.655 18.8923 134.246 19.046C133.836 19.1996 133.478 19.3532 133.222 19.6091L132.659 18.8411C133.017 18.534 133.426 18.3292 133.938 18.1243C134.45 17.9708 135.065 17.8684 135.731 17.9196C136.14 17.9708 136.55 18.022 136.857 18.1755C137.216 18.3292 137.523 18.534 137.779 18.7388C138.035 18.9947 138.24 19.302 138.342 19.6603C138.496 20.0188 138.496 20.4283 138.496 20.8892L138.24 24.2172C138.24 24.5244 138.189 24.8315 138.189 25.1388C138.189 25.4459 138.189 25.702 138.24 25.958L137.267 25.9068C137.267 25.702 137.216 25.4971 137.216 25.2924C137.216 25.0876 137.216 24.8827 137.216 24.6268H137.164C136.755 25.1388 136.345 25.4459 135.884 25.6508C135.423 25.8556 134.911 25.9068 134.246 25.8556C133.938 25.8556 133.631 25.7532 133.324 25.6508C133.017 25.5483 132.762 25.3948 132.506 25.19C132.25 24.9852 132.045 24.7291 131.942 24.422C131.789 24.1147 131.738 23.7564 131.789 23.3467C131.84 22.7324 131.994 22.3228 132.352 21.9644C132.659 21.6572 133.068 21.4012 133.631 21.2988C134.143 21.1451 134.707 21.0939 135.372 21.0939C136.038 21.0939 136.704 21.0939 137.42 21.1451V21.0427ZM137.011 22.118C136.55 22.0668 136.089 22.0668 135.628 22.0668C135.167 22.0668 134.758 22.118 134.348 22.2204C133.938 22.3228 133.631 22.4763 133.375 22.6299C133.119 22.8348 132.965 23.0908 132.965 23.4492C132.965 23.7052 132.965 23.9611 133.068 24.166C133.17 24.3708 133.273 24.5244 133.478 24.6268C133.631 24.7291 133.836 24.8315 134.041 24.934C134.246 25.0364 134.45 25.0364 134.707 25.0364C135.116 25.0876 135.475 25.0364 135.782 24.8827C136.089 24.7803 136.345 24.5756 136.601 24.3708C136.806 24.166 137.011 23.91 137.113 23.6028C137.267 23.2955 137.318 22.9884 137.318 22.6299L137.369 22.0668L137.011 22.118Z" fill="#1D1D1B"/>
<path d="M144.947 20.173L142.797 19.8658L142.182 24.3202C142.131 24.6274 142.131 24.8322 142.182 25.037C142.234 25.2419 142.285 25.3954 142.336 25.4978C142.438 25.6002 142.541 25.7026 142.695 25.7538C142.848 25.805 143.002 25.8563 143.155 25.8563C143.309 25.8563 143.463 25.8563 143.667 25.8563C143.821 25.8563 144.025 25.805 144.179 25.7538L144.076 26.7266C143.871 26.7778 143.667 26.829 143.463 26.829C143.258 26.829 143.002 26.829 142.746 26.7778C142.541 26.7267 142.336 26.6755 142.131 26.6243C141.926 26.5218 141.722 26.4194 141.517 26.2146C141.363 26.061 141.21 25.805 141.107 25.549C141.005 25.293 141.005 24.9346 141.056 24.525L141.67 19.7634L140.083 19.5586L140.185 18.637L141.773 18.8418L142.08 16.6914L143.207 16.845L142.899 18.9954L145.049 19.3027L144.947 20.173Z" fill="#1D1D1B"/>
<path d="M146.636 27.2885L145.561 27.0836L146.892 19.506L147.967 19.7108L146.636 27.2885ZM148.684 16.8949C148.633 17.0997 148.53 17.3044 148.326 17.4068C148.121 17.5092 147.967 17.5604 147.762 17.5092C147.558 17.458 147.404 17.3556 147.25 17.202C147.097 17.0485 147.045 16.8437 147.097 16.5876C147.148 16.3829 147.25 16.1781 147.455 16.0756C147.66 15.9732 147.814 15.922 148.018 15.9732C148.223 16.0244 148.377 16.1269 148.53 16.2805C148.684 16.434 148.735 16.6388 148.684 16.8949Z" fill="#1D1D1B"/>
<path d="M157.337 25.8056C157.184 26.3688 156.979 26.8808 156.672 27.2904C156.364 27.7 156.006 28.0584 155.545 28.3144C155.084 28.5704 154.623 28.724 154.06 28.8264C153.497 28.9288 152.986 28.8776 152.371 28.724C151.808 28.5704 151.296 28.3656 150.835 28.0584C150.374 27.7512 150.067 27.3416 149.76 26.932C149.504 26.4713 149.299 26.0104 149.248 25.4984C149.145 24.9865 149.196 24.4232 149.35 23.86C149.504 23.2968 149.708 22.7848 150.016 22.3752C150.323 21.9656 150.681 21.6072 151.142 21.3512C151.603 21.0952 152.064 20.9416 152.627 20.8392C153.139 20.788 153.702 20.788 154.316 20.9416C154.879 21.0952 155.391 21.3 155.852 21.6072C156.313 21.9144 156.62 22.324 156.928 22.7337C157.184 23.1944 157.388 23.6552 157.44 24.1672C157.542 24.6792 157.491 25.2424 157.337 25.8056ZM156.211 25.4984C156.313 25.0888 156.364 24.6792 156.313 24.2696C156.262 23.86 156.159 23.5017 156.006 23.1944C155.852 22.8872 155.596 22.58 155.289 22.324C154.982 22.068 154.623 21.9144 154.162 21.812C153.702 21.7096 153.293 21.7096 152.934 21.7608C152.525 21.812 152.218 21.9656 151.91 22.1704C151.603 22.3752 151.347 22.6312 151.091 22.9896C150.886 23.348 150.681 23.7064 150.63 24.116C150.528 24.5256 150.476 24.9353 150.528 25.3448C150.579 25.7544 150.681 26.1128 150.835 26.4201C150.989 26.7272 151.245 27.0344 151.552 27.2904C151.859 27.5464 152.218 27.7 152.678 27.8024C153.139 27.9049 153.549 27.9049 153.906 27.8536C154.316 27.8024 154.623 27.6488 154.931 27.444C155.238 27.2392 155.494 26.9832 155.75 26.6248C155.955 26.3176 156.108 25.908 156.211 25.4984Z" fill="#1D1D1B"/>
<path d="M161.638 23.1436C161.587 23.3484 161.535 23.5532 161.484 23.8091C161.433 24.0652 161.331 24.27 161.279 24.4235H161.331C161.689 24.0652 162.149 23.8604 162.712 23.7579C163.275 23.6555 163.787 23.7067 164.3 23.8604C165.221 24.1676 165.836 24.6796 166.092 25.3964C166.348 26.1132 166.348 26.8812 166.041 27.8028L164.504 32.2572L163.429 31.8987L164.812 27.9052C164.965 27.5468 165.016 27.1884 165.068 26.83C165.119 26.5228 165.119 26.2156 165.016 25.9083C164.965 25.6524 164.812 25.3964 164.607 25.1915C164.402 24.9868 164.095 24.8332 163.736 24.6796C163.48 24.5772 163.173 24.5259 162.866 24.5772C162.559 24.5772 162.251 24.6796 161.996 24.8332C161.689 24.9868 161.433 25.2427 161.177 25.55C160.921 25.8571 160.716 26.2668 160.562 26.7275L159.282 30.4652L158.207 30.1068L160.153 24.4235C160.204 24.2188 160.306 23.9628 160.409 23.6555C160.511 23.3484 160.562 23.0411 160.665 22.7852L161.638 23.1436Z" fill="#1D1D1B"/>
<path d="M180.173 37.5313C179.865 37.6849 179.507 37.8385 179.149 37.9409C178.79 38.0433 178.38 38.0945 177.971 38.0945C177.561 38.0945 177.1 38.0433 176.691 37.9409C176.23 37.8385 175.77 37.6849 175.309 37.4289C174.541 37.0193 173.875 36.5073 173.363 35.8929C172.851 35.2785 172.441 34.6129 172.237 33.8961C171.981 33.1793 171.929 32.4113 171.981 31.5921C172.032 30.7729 172.288 30.0049 172.697 29.1857C173.107 28.4177 173.619 27.7521 174.234 27.2401C174.848 26.7281 175.514 26.3185 176.23 26.1137C176.947 25.8577 177.715 25.8065 178.534 25.8577C179.353 25.9089 180.121 26.1649 180.89 26.5233C181.248 26.7281 181.606 26.9329 181.965 27.1889C182.272 27.4449 182.579 27.7521 182.835 28.0593C183.092 28.3665 183.296 28.6737 183.45 29.0321C183.603 29.3905 183.705 29.6977 183.756 30.0561L182.528 30.2609C182.528 30.0561 182.426 29.8001 182.375 29.5441C182.272 29.2881 182.119 29.0321 181.965 28.7761C181.811 28.5201 181.555 28.2641 181.35 28.0593C181.094 27.8545 180.838 27.6497 180.48 27.4449C179.814 27.0865 179.149 26.9329 178.483 26.8817C177.817 26.8306 177.203 26.9329 176.639 27.1889C176.076 27.3937 175.514 27.7521 175.053 28.2129C174.592 28.6737 174.182 29.1857 173.875 29.8001C173.568 30.4145 173.363 31.0289 173.312 31.6945C173.21 32.3601 173.261 32.9745 173.414 33.5889C173.568 34.2033 173.875 34.7665 174.285 35.2785C174.695 35.7905 175.207 36.2001 175.872 36.5585C176.486 36.8657 177.1 37.0193 177.766 37.0705C178.432 37.1217 179.097 36.9169 179.712 36.6097L180.173 37.5313Z" fill="#1D1D1B"/>
<path d="M189.082 41.0112C188.774 41.5231 188.365 41.8815 187.955 42.1887C187.495 42.496 187.034 42.7007 186.574 42.8031C186.061 42.9055 185.549 42.9055 185.037 42.8031C184.525 42.7007 183.962 42.496 183.501 42.1375C182.989 41.8303 182.579 41.4207 182.272 41.0112C181.965 40.5503 181.76 40.0895 181.658 39.5776C181.555 39.0655 181.555 38.5535 181.658 38.0416C181.76 37.5295 181.965 37.0175 182.272 36.5056C182.579 36.0447 182.938 35.6351 183.399 35.3279C183.86 35.0208 184.32 34.8159 184.781 34.7135C185.293 34.6111 185.805 34.6111 186.318 34.7135C186.83 34.8159 187.342 35.0208 187.853 35.3279C188.365 35.6351 188.774 36.0447 189.082 36.5056C189.389 36.9663 189.594 37.4271 189.696 37.9391C189.799 38.4511 189.799 38.9631 189.696 39.4752C189.594 39.9871 189.389 40.4991 189.082 41.0112ZM188.109 40.3455C188.365 39.9871 188.518 39.6287 188.57 39.2191C188.672 38.8096 188.672 38.4511 188.621 38.0928C188.57 37.7343 188.416 37.376 188.211 37.0175C188.006 36.6591 187.699 36.4031 187.342 36.1471C186.983 35.8911 186.574 35.7375 186.215 35.6863C185.805 35.6351 185.447 35.6351 185.089 35.7376C184.73 35.84 184.372 35.9935 184.064 36.2495C183.757 36.5056 183.45 36.8127 183.245 37.1711C182.989 37.5295 182.835 37.8879 182.784 38.2975C182.682 38.7072 182.682 39.0655 182.733 39.424C182.784 39.7823 182.938 40.1407 183.143 40.4479C183.348 40.7551 183.655 41.0624 184.013 41.3183C184.372 41.5743 184.781 41.728 185.14 41.7792C185.549 41.8303 185.908 41.8303 186.266 41.728C186.625 41.6256 186.983 41.4719 187.29 41.2159C187.597 41.0112 187.853 40.7039 188.109 40.3455Z" fill="#1D1D1B"/>
<path d="M193.997 39.8844C193.894 40.0379 193.741 40.2427 193.587 40.4476C193.433 40.6524 193.331 40.8059 193.229 40.9595H193.28C193.741 40.7547 194.253 40.6524 194.816 40.7547C195.379 40.8571 195.891 41.062 196.301 41.3692C197.069 41.9836 197.479 42.6492 197.479 43.4172C197.53 44.1852 197.223 44.902 196.659 45.67L193.741 49.3564L192.871 48.6908L195.482 45.3627C195.738 45.0556 195.942 44.7484 196.096 44.4411C196.25 44.134 196.352 43.8267 196.352 43.5708C196.352 43.2636 196.301 43.0075 196.199 42.7516C196.045 42.4956 195.84 42.2395 195.533 41.9836C195.277 41.7788 195.021 41.6763 194.765 41.5739C194.457 41.4715 194.15 41.4715 193.843 41.5227C193.536 41.5739 193.177 41.7276 192.871 41.9324C192.513 42.1372 192.205 42.4443 191.898 42.854L189.491 45.9771L188.621 45.3115L192.308 40.6012C192.41 40.4476 192.615 40.2427 192.769 39.9356C192.973 39.6796 193.126 39.4235 193.28 39.2188L193.997 39.8844Z" fill="#1D1D1B"/>
<path d="M202.599 48.3337L201.013 46.9001L198.043 50.2281C197.838 50.4329 197.736 50.6377 197.633 50.7913C197.531 50.9449 197.531 51.1496 197.531 51.2521C197.531 51.4057 197.582 51.5593 197.685 51.6617C197.787 51.7641 197.889 51.9177 197.992 52.0201C198.094 52.1225 198.248 52.2249 198.401 52.2761C198.555 52.3785 198.709 52.4297 198.862 52.4809L198.248 53.2488C198.043 53.1977 197.838 53.0953 197.685 52.9417C197.48 52.8393 197.326 52.6857 197.121 52.532C196.968 52.3785 196.814 52.2249 196.712 52.0201C196.558 51.8152 196.507 51.6105 196.456 51.3545C196.404 51.0984 196.456 50.8425 196.507 50.5865C196.609 50.3304 196.763 50.0233 197.07 49.7161L200.245 46.1321L199.067 45.0569L199.682 44.3401L200.859 45.4153L202.292 43.8281L203.111 44.5961L201.678 46.1833L203.265 47.6169L202.599 48.3337Z" fill="#1D1D1B"/>
<path d="M203.98 49.5601C204.185 49.3042 204.39 49.0993 204.595 48.8945L205.312 49.6625C205.158 49.8161 205.056 50.021 204.851 50.1746C204.697 50.3793 204.543 50.5329 204.441 50.6353C204.902 50.4817 205.414 50.4305 205.926 50.5329C206.438 50.6353 206.899 50.8914 207.257 51.3009C207.36 51.4034 207.462 51.5058 207.513 51.6082C207.565 51.7106 207.667 51.8129 207.718 51.9153L206.848 52.5809C206.797 52.5297 206.745 52.4274 206.643 52.325C206.541 52.2226 206.438 52.0689 206.336 51.9665C206.131 51.7617 205.875 51.6082 205.619 51.5058C205.363 51.4034 205.056 51.3521 204.748 51.3521C204.441 51.3521 204.134 51.4546 203.775 51.6594C203.417 51.8129 203.058 52.1202 202.7 52.4785L199.936 55.2434L199.168 54.4754L203.366 50.2258C203.571 50.021 203.724 49.8161 203.98 49.5601Z" fill="#1D1D1B"/>
<path d="M210.843 61.3888C210.382 61.7472 209.921 62.0544 209.409 62.208C208.897 62.3617 208.385 62.464 207.873 62.4129C207.361 62.3617 206.849 62.2592 206.389 62.0032C205.928 61.7472 205.467 61.3888 205.057 60.9281C204.648 60.4672 204.391 60.0064 204.187 59.4944C204.033 58.9824 203.931 58.4704 203.982 57.9585C204.033 57.4464 204.135 56.9344 204.391 56.4737C204.648 56.0128 204.955 55.552 205.416 55.1936C205.876 54.8352 206.337 54.528 206.849 54.3744C207.361 54.2208 207.873 54.1184 208.385 54.1696C208.897 54.2208 209.409 54.3232 209.87 54.5792C210.331 54.8352 210.791 55.1936 211.15 55.6032C211.559 56.064 211.816 56.5248 212.02 57.0368C212.174 57.5488 212.276 58.0608 212.225 58.5728C212.174 59.0848 212.072 59.5968 211.816 60.0576C211.662 60.5696 211.303 61.0304 210.843 61.3888ZM210.074 60.5184C210.382 60.2624 210.638 59.904 210.843 59.5968C211.047 59.2384 211.15 58.88 211.201 58.5216C211.252 58.1632 211.201 57.7536 211.099 57.3952C210.996 57.0368 210.791 56.6784 210.484 56.32C210.177 55.9616 209.87 55.7569 209.511 55.552C209.153 55.3984 208.794 55.296 208.436 55.296C208.077 55.296 207.669 55.3472 207.31 55.5008C206.952 55.6544 206.593 55.8592 206.286 56.1152C205.979 56.3712 205.723 56.7296 205.518 57.0368C205.313 57.3952 205.211 57.7536 205.16 58.112C205.108 58.4704 205.16 58.88 205.262 59.2384C205.364 59.5968 205.569 59.9552 205.876 60.3136C206.184 60.672 206.491 60.9281 206.849 61.0816C207.208 61.2352 207.566 61.3376 207.924 61.3376C208.282 61.3376 208.692 61.2864 209.05 61.1328C209.409 60.9792 209.767 60.7744 210.074 60.5184Z" fill="#1D1D1B"/>
<path d="M209.766 66.4046L209.101 65.5342L218.931 58.0078L219.597 58.8782L209.766 66.4046Z" fill="#1D1D1B"/>
<path d="M214.375 72.9602L213.76 71.9362L223.693 65.8945L225.485 68.8129C225.792 69.2738 225.997 69.7858 226.151 70.2465C226.304 70.7074 226.355 71.1682 226.355 71.5778C226.355 71.9874 226.202 72.397 225.946 72.8066C225.69 73.165 225.331 73.5234 224.87 73.8306C224.512 74.0353 224.154 74.189 223.744 74.2402C223.385 74.2914 222.977 74.2914 222.618 74.189C222.26 74.0866 221.901 73.9329 221.594 73.7282C221.287 73.5234 220.98 73.2161 220.724 72.8578L217.754 78.6434L216.986 77.4146L219.956 71.8338L218.931 70.1442L214.375 72.9602ZM219.904 69.6322L220.98 71.373C221.492 72.1922 222.004 72.7042 222.567 72.9602C223.129 73.2161 223.693 73.165 224.307 72.8066C224.614 72.6018 224.87 72.397 225.024 72.141C225.178 71.885 225.229 71.629 225.28 71.3218C225.28 71.0145 225.229 70.7074 225.126 70.3489C225.024 69.9906 224.819 69.6322 224.614 69.2738L223.539 67.4818L219.904 69.6322Z" fill="#1D1D1B"/>
<path d="M225.177 84.2767C225.126 84.3279 225.023 84.3279 224.972 84.379C224.87 84.4302 224.818 84.4302 224.716 84.4814L221.901 78.7982C221.542 79.003 221.286 79.2078 221.03 79.4638C220.774 79.7198 220.62 80.027 220.518 80.3854C220.416 80.7438 220.364 81.051 220.364 81.4606C220.364 81.819 220.467 82.1774 220.672 82.5358C220.928 83.0478 221.286 83.4574 221.696 83.7134C222.105 83.9694 222.566 84.123 222.975 84.1742L222.77 85.1982C222.054 85.0447 221.44 84.7886 220.979 84.379C220.518 84.0206 220.108 83.5086 219.852 82.9454C219.596 82.4334 219.443 81.9214 219.443 81.4094C219.392 80.8974 219.494 80.3854 219.648 79.9246C219.801 79.4638 220.057 79.003 220.416 78.5934C220.774 78.1838 221.184 77.8766 221.747 77.6207C222.259 77.3646 222.77 77.211 223.333 77.1598C223.846 77.1086 224.358 77.1598 224.818 77.3134C225.279 77.467 225.74 77.723 226.099 78.0302C226.508 78.3374 226.816 78.7982 227.072 79.259C227.328 79.8222 227.481 80.3342 227.481 80.795C227.481 81.307 227.43 81.7678 227.276 82.1774C227.123 82.587 226.867 82.9966 226.508 83.355C226.047 83.7646 225.638 84.0206 225.177 84.2767ZM224.972 83.099C225.587 82.7406 226.047 82.2798 226.252 81.6654C226.508 81.051 226.406 80.3854 226.099 79.7198C225.945 79.3614 225.74 79.1055 225.433 78.9006C225.177 78.6958 224.87 78.491 224.562 78.3887C224.255 78.2862 223.897 78.235 223.589 78.235C223.282 78.235 222.924 78.2862 222.618 78.4399L224.972 83.099Z" fill="#1D1D1B"/>
<path d="M218.982 90.2142L218.572 89.1902L229.427 85.043L229.837 86.0669L228.608 86.5278V86.579C229.171 86.6813 229.683 86.9374 230.144 87.347C230.553 87.7566 230.912 88.2173 231.065 88.7294C231.27 89.2926 231.373 89.8558 231.373 90.3677C231.373 90.8798 231.219 91.3918 231.014 91.8525C230.809 92.3134 230.502 92.7229 230.093 93.0814C229.683 93.4397 229.222 93.6958 228.71 93.9006C228.198 94.1053 227.635 94.2077 227.123 94.2077C226.61 94.2077 226.098 94.1053 225.638 93.9006C225.177 93.6958 224.767 93.4397 224.409 93.0302C224.051 92.6717 223.744 92.1598 223.539 91.5966C223.334 91.0845 223.283 90.5213 223.334 89.9582C223.385 89.395 223.59 88.8318 223.897 88.371V88.3198L218.982 90.2142ZM228.3 92.7742C228.71 92.6205 229.068 92.4158 229.376 92.1598C229.683 91.9037 229.939 91.5966 230.093 91.2894C230.246 90.9822 230.349 90.5726 230.4 90.2142C230.4 89.8046 230.349 89.395 230.195 88.9853C230.041 88.5758 229.836 88.2685 229.529 87.9614C229.273 87.7054 228.915 87.4493 228.556 87.347C228.198 87.1934 227.839 87.1422 227.43 87.1422C227.02 87.1422 226.61 87.1934 226.201 87.3981C225.791 87.5517 225.433 87.7566 225.125 88.0638C224.818 88.3198 224.613 88.627 224.46 88.9853C224.306 89.3438 224.205 89.7021 224.205 90.1118C224.205 90.5213 224.255 90.8798 224.409 91.2894C224.562 91.699 224.818 92.0574 225.074 92.3646C225.33 92.6205 225.689 92.8254 225.996 92.979C226.354 93.1326 226.713 93.1838 227.123 93.1326C227.481 92.979 227.891 92.9278 228.3 92.7742Z" fill="#1D1D1B"/>
<path d="M231.424 103.424C230.86 103.578 230.297 103.629 229.785 103.578C229.273 103.527 228.761 103.373 228.351 103.117C227.89 102.861 227.532 102.504 227.174 102.094C226.866 101.684 226.61 101.172 226.457 100.558C226.303 99.9949 226.252 99.4312 226.303 98.9192C226.354 98.356 226.508 97.8952 226.764 97.4344C227.02 96.9736 227.327 96.6152 227.788 96.2568C228.198 95.9496 228.71 95.6936 229.273 95.54C229.836 95.3864 230.4 95.3352 230.912 95.3864C231.424 95.4376 231.936 95.5912 232.344 95.8472C232.805 96.1032 233.164 96.4616 233.522 96.8712C233.881 97.2808 234.085 97.7928 234.239 98.356C234.393 98.9192 234.444 99.4824 234.393 100.046C234.342 100.609 234.188 101.07 233.932 101.531C233.676 101.992 233.369 102.35 232.908 102.708C232.498 103.015 231.987 103.271 231.424 103.424ZM231.116 102.299C231.526 102.196 231.885 101.992 232.242 101.787C232.549 101.531 232.857 101.275 233.01 100.967C233.215 100.66 233.317 100.302 233.42 99.8919C233.471 99.4824 233.471 99.0728 233.317 98.6632C233.215 98.2536 233.01 97.8441 232.754 97.588C232.498 97.2808 232.191 97.076 231.885 96.8712C231.526 96.7176 231.168 96.6152 230.758 96.564C230.348 96.5128 229.939 96.564 229.529 96.6664C229.119 96.7688 228.761 96.9736 228.403 97.1784C228.095 97.4344 227.788 97.6904 227.634 97.9976C227.43 98.3048 227.327 98.6632 227.225 99.0728C227.174 99.4824 227.174 99.8409 227.327 100.302C227.43 100.711 227.634 101.121 227.89 101.428C228.147 101.736 228.454 101.992 228.761 102.145C229.119 102.299 229.478 102.401 229.888 102.452C230.297 102.452 230.707 102.401 231.116 102.299Z" fill="#1D1D1B"/>
<path d="M234.752 104.908C235.059 104.857 235.366 104.755 235.621 104.703L235.826 105.728C235.621 105.779 235.418 105.83 235.161 105.932C234.905 105.984 234.701 106.035 234.547 106.086V106.137C235.008 106.24 235.468 106.496 235.826 106.905C236.185 107.264 236.441 107.725 236.543 108.288C236.594 108.442 236.594 108.544 236.594 108.646C236.594 108.749 236.594 108.902 236.594 109.005L235.519 109.056C235.519 109.005 235.519 108.851 235.519 108.698C235.519 108.544 235.468 108.39 235.468 108.237C235.418 107.929 235.315 107.673 235.161 107.417C235.008 107.161 234.803 106.957 234.496 106.803C234.24 106.649 233.881 106.547 233.523 106.496C233.164 106.444 232.704 106.444 232.191 106.547L228.351 107.315L228.146 106.24L234.035 105.062C234.189 105.062 234.445 105.011 234.752 104.908Z" fill="#1D1D1B"/>
<path d="M236.39 115.099L236.083 112.948L231.629 113.562C231.321 113.614 231.117 113.665 230.963 113.716C230.809 113.818 230.656 113.87 230.553 114.023C230.451 114.126 230.4 114.279 230.4 114.433C230.4 114.587 230.4 114.74 230.4 114.894C230.4 115.047 230.451 115.201 230.553 115.355C230.604 115.508 230.707 115.662 230.809 115.815L229.836 116.02C229.734 115.815 229.632 115.662 229.58 115.457C229.529 115.252 229.478 115.047 229.427 114.791C229.376 114.587 229.376 114.382 229.427 114.126C229.427 113.87 229.529 113.665 229.632 113.46C229.734 113.255 229.939 113.05 230.195 112.897C230.451 112.743 230.758 112.641 231.168 112.589L235.929 111.924L235.724 110.337L236.646 110.184L236.851 111.77L239.001 111.463L239.155 112.589L237.004 112.897L237.312 115.047L236.39 115.099Z" fill="#1D1D1B"/>
<path d="M236.083 121.498C236.39 121.294 236.646 121.038 236.799 120.679C236.953 120.321 237.056 119.962 237.004 119.501C237.004 119.296 236.953 119.092 236.902 118.938C236.851 118.733 236.748 118.58 236.646 118.426C236.543 118.272 236.39 118.17 236.236 118.068C236.083 117.965 235.878 117.965 235.673 117.965C235.314 118.016 235.058 118.17 234.905 118.477C234.751 118.784 234.598 119.245 234.546 119.911C234.444 120.833 234.188 121.498 233.882 121.959C233.574 122.419 233.114 122.675 232.499 122.726C232.038 122.778 231.68 122.726 231.373 122.573C231.065 122.419 230.809 122.214 230.604 121.959C230.4 121.703 230.246 121.396 230.144 121.089C230.041 120.73 229.99 120.423 229.939 120.065C229.888 119.501 229.99 118.938 230.144 118.375C230.348 117.811 230.707 117.351 231.168 116.941L231.885 117.76C231.577 117.965 231.321 118.272 231.117 118.682C230.912 119.092 230.809 119.501 230.86 119.962C230.86 120.218 230.912 120.423 230.963 120.628C231.014 120.833 231.117 121.038 231.219 121.191C231.321 121.345 231.475 121.447 231.68 121.55C231.885 121.652 232.089 121.652 232.345 121.652C232.755 121.601 233.011 121.396 233.216 120.986C233.37 120.577 233.523 120.013 233.626 119.245C233.677 118.989 233.728 118.784 233.779 118.477C233.83 118.221 233.932 117.965 234.086 117.76C234.239 117.555 234.393 117.351 234.649 117.197C234.854 117.043 235.161 116.941 235.519 116.89C235.929 116.839 236.236 116.89 236.543 117.043C236.851 117.197 237.056 117.351 237.26 117.607C237.465 117.863 237.619 118.119 237.721 118.426C237.824 118.733 237.926 119.092 237.926 119.45C237.977 119.962 237.875 120.525 237.67 121.038C237.465 121.55 237.158 121.959 236.748 122.265L236.083 121.498Z" fill="#1D1D1B"/>
<path d="M82.4822 229.735C82.7382 229.121 82.7894 228.609 82.6358 228.148C82.4822 227.688 82.0726 227.329 81.4582 227.073C81.0486 226.868 80.639 226.766 80.1782 226.766C79.7686 226.766 79.359 226.817 79.0006 226.92L78.7446 225.998C79.1542 225.844 79.6662 225.793 80.2294 225.793C80.7925 225.844 81.3558 225.998 81.9702 226.254C82.3286 226.407 82.687 226.663 82.943 226.92C83.199 227.176 83.455 227.483 83.6086 227.79C83.7622 228.097 83.8134 228.456 83.8134 228.865C83.8134 229.224 83.711 229.632 83.5062 230.093L82.0726 233.115C81.9702 233.371 81.8166 233.678 81.7142 233.985C81.6118 234.292 81.5094 234.548 81.4582 234.753L80.5366 234.344C80.5878 234.139 80.639 233.985 80.7414 233.78C80.7925 233.575 80.895 233.371 80.9974 233.166H80.9462C80.4342 233.473 79.871 233.627 79.4102 233.678C78.8982 233.678 78.3862 233.575 77.8229 233.319C77.567 233.217 77.311 233.012 77.055 232.807C76.799 232.602 76.5942 232.346 76.4406 232.09C76.287 231.834 76.1846 231.527 76.1846 231.169C76.1846 230.81 76.2358 230.452 76.4406 230.093C76.6966 229.581 77.0038 229.173 77.4646 229.019C77.8742 228.814 78.335 228.763 78.8982 228.814C79.4102 228.865 79.9734 229.019 80.5878 229.274C81.2022 229.53 81.8166 229.786 82.431 230.042L82.4822 229.735ZM81.7142 230.657C81.3046 230.452 80.895 230.298 80.4342 230.145C79.9734 229.991 79.5638 229.889 79.2054 229.837C78.7958 229.786 78.4886 229.786 78.1302 229.889C77.8229 229.991 77.567 230.196 77.4134 230.503C77.311 230.759 77.2598 230.964 77.2598 231.169C77.2598 231.374 77.3622 231.578 77.4646 231.732C77.567 231.886 77.7206 232.09 77.8742 232.193C78.0278 232.346 78.2326 232.449 78.4374 232.551C78.7958 232.705 79.1542 232.807 79.4614 232.807C79.8198 232.807 80.127 232.756 80.383 232.654C80.6902 232.551 80.9462 232.346 81.151 232.142C81.3558 231.937 81.5606 231.63 81.7142 231.322L81.9702 230.81L81.7142 230.657Z" fill="white"/>
<path d="M85.1958 236.288L84.1719 235.879L87.0391 228.762L88.063 229.172L85.1958 236.288ZM89.3943 226.509C89.2919 226.714 89.1383 226.867 88.9335 226.919C88.7287 226.97 88.5239 227.021 88.3703 226.919C88.1655 226.867 88.063 226.714 87.9607 226.509C87.8583 226.304 87.8583 226.099 87.9607 225.894C88.063 225.69 88.2167 225.536 88.4215 225.485C88.6263 225.434 88.831 225.382 88.9847 225.485C89.1895 225.536 89.2919 225.69 89.3943 225.894C89.4455 226.099 89.4455 226.304 89.3943 226.509Z" fill="white"/>
<path d="M95.2835 233.574C95.181 233.217 95.0274 232.91 94.7714 232.602C94.5155 232.295 94.157 232.09 93.7475 231.937C93.3378 231.783 92.9282 231.732 92.5186 231.783C92.109 231.834 91.7506 231.937 91.4434 232.09C91.085 232.295 90.8291 232.5 90.573 232.859C90.317 233.166 90.1123 233.523 90.0098 233.933C89.8562 234.343 89.805 234.752 89.805 235.162C89.805 235.571 89.9074 235.93 90.061 236.288C90.2146 236.647 90.4194 236.954 90.7266 237.21C91.0338 237.466 91.3922 237.671 91.8018 237.825C92.2627 237.978 92.6722 238.029 93.0819 237.978C93.4402 237.927 93.7987 237.773 94.1058 237.569L94.7202 238.439C94.2594 238.695 93.7987 238.9 93.2866 238.951C92.7746 239.002 92.1602 238.951 91.5459 238.746C90.9314 238.541 90.4706 238.285 90.061 237.927C89.6514 237.569 89.3443 237.159 89.0882 236.698C88.8834 236.237 88.7298 235.725 88.7298 235.213C88.6786 234.701 88.781 234.138 88.9858 233.574C89.1906 233.012 89.4466 232.551 89.805 232.142C90.1635 231.732 90.5218 231.425 90.9826 231.22C91.4434 231.015 91.9554 230.861 92.4674 230.81C93.0307 230.759 93.5938 230.861 94.157 231.066C94.669 231.22 95.0786 231.527 95.5394 231.886C95.9491 232.244 96.2562 232.705 96.461 233.217L95.2835 233.574Z" fill="white"/>
<path d="M96.7675 244.274L95.6924 244.018L98.4572 232.754L99.5324 233.01L99.2252 234.29H99.2764C99.6863 233.881 100.198 233.625 100.761 233.471C101.324 233.369 101.888 233.369 102.4 233.471C102.963 233.625 103.475 233.829 103.936 234.137C104.345 234.444 104.704 234.854 104.96 235.263C105.216 235.673 105.37 236.184 105.421 236.696C105.472 237.208 105.472 237.771 105.318 238.335C105.165 238.898 104.96 239.359 104.653 239.82C104.345 240.229 103.987 240.588 103.577 240.895C103.168 241.151 102.707 241.356 102.144 241.407C101.631 241.509 101.068 241.458 100.505 241.305C99.9933 241.151 99.4812 240.946 99.0203 240.537C98.5596 240.178 98.2523 239.717 98.0476 239.154H97.9964L96.7675 244.274ZM104.192 238.079C104.294 237.669 104.345 237.259 104.294 236.85C104.243 236.44 104.141 236.082 103.987 235.774C103.833 235.468 103.577 235.161 103.27 234.905C102.963 234.649 102.604 234.495 102.144 234.393C101.734 234.29 101.324 234.29 100.915 234.341C100.505 234.393 100.146 234.546 99.8393 234.751C99.5324 234.956 99.2252 235.212 99.0203 235.57C98.7644 235.877 98.6108 236.286 98.5084 236.696C98.406 237.106 98.3547 237.515 98.4572 237.925C98.5596 238.335 98.6108 238.693 98.8156 239C99.0203 239.308 99.2764 239.615 99.5836 239.871C99.8903 240.127 100.249 240.28 100.659 240.383C101.119 240.485 101.529 240.537 101.888 240.434C102.297 240.383 102.604 240.229 102.912 240.024C103.219 239.82 103.475 239.564 103.68 239.205C103.936 238.847 104.089 238.488 104.192 238.079Z" fill="white"/>
<path d="M112.946 238.437C113.049 237.771 112.946 237.259 112.639 236.901C112.332 236.542 111.872 236.286 111.206 236.184C110.745 236.133 110.336 236.133 109.926 236.235C109.516 236.338 109.158 236.491 108.851 236.747L108.339 235.928C108.697 235.672 109.158 235.467 109.721 235.365C110.285 235.262 110.848 235.211 111.513 235.314C111.923 235.365 112.281 235.467 112.639 235.672C112.997 235.826 113.254 236.082 113.51 236.338C113.766 236.594 113.919 236.901 114.022 237.311C114.124 237.669 114.124 238.079 114.073 238.54L113.561 241.867C113.51 242.174 113.458 242.481 113.458 242.789C113.407 243.096 113.407 243.352 113.458 243.608L112.485 243.454C112.485 243.25 112.485 243.045 112.485 242.84C112.485 242.635 112.537 242.43 112.537 242.225H112.485C112.076 242.686 111.616 242.994 111.155 243.147C110.694 243.301 110.131 243.352 109.516 243.25C109.209 243.198 108.953 243.096 108.646 242.994C108.339 242.84 108.083 242.686 107.878 242.481C107.673 242.277 107.468 241.969 107.366 241.662C107.263 241.355 107.212 240.996 107.263 240.536C107.366 239.972 107.571 239.512 107.929 239.205C108.287 238.898 108.697 238.693 109.26 238.642C109.772 238.54 110.387 238.54 111.001 238.591C111.667 238.642 112.332 238.693 112.997 238.847L112.946 238.437ZM112.434 239.512C111.974 239.461 111.513 239.41 111.053 239.359C110.592 239.308 110.182 239.359 109.772 239.41C109.363 239.461 109.056 239.564 108.8 239.769C108.543 239.972 108.39 240.228 108.287 240.587C108.236 240.843 108.287 241.099 108.339 241.304C108.39 241.509 108.543 241.662 108.697 241.816C108.851 241.969 109.056 242.072 109.26 242.123C109.465 242.225 109.67 242.277 109.875 242.277C110.285 242.328 110.643 242.328 110.95 242.225C111.257 242.123 111.565 241.969 111.821 241.816C112.076 241.611 112.281 241.355 112.434 241.099C112.588 240.792 112.69 240.484 112.741 240.177L112.844 239.615L112.434 239.512Z" fill="white"/>
<path d="M117.913 243.202C117.913 243.407 117.811 243.612 117.606 243.817C117.401 243.97 117.196 244.073 116.94 244.022C116.684 243.97 116.48 243.868 116.326 243.714C116.172 243.51 116.121 243.305 116.121 243.1C116.121 242.895 116.224 242.69 116.428 242.485C116.633 242.281 116.838 242.229 117.094 242.281C117.35 242.281 117.555 242.434 117.709 242.588C117.862 242.741 117.965 242.946 117.913 243.202Z" fill="white"/>
<path d="M128.307 240.64C128.307 241.203 128.153 241.766 127.948 242.227C127.744 242.688 127.436 243.148 127.079 243.455C126.72 243.814 126.26 244.07 125.747 244.275C125.235 244.479 124.672 244.531 124.058 244.531C123.443 244.531 122.931 244.377 122.419 244.172C121.907 243.967 121.497 243.66 121.139 243.302C120.78 242.944 120.524 242.483 120.32 241.971C120.115 241.459 120.063 240.947 120.063 240.333C120.063 239.769 120.217 239.206 120.422 238.745C120.627 238.284 120.934 237.824 121.292 237.516C121.651 237.158 122.112 236.902 122.624 236.697C123.136 236.492 123.699 236.441 124.262 236.441C124.877 236.441 125.389 236.595 125.901 236.799C126.413 237.004 126.823 237.311 127.181 237.67C127.539 238.028 127.795 238.489 128 239.001C128.256 239.513 128.358 240.025 128.307 240.64ZM127.13 240.589C127.13 240.179 127.079 239.769 126.976 239.36C126.874 239.001 126.669 238.643 126.413 238.336C126.157 238.028 125.85 237.824 125.491 237.619C125.133 237.465 124.723 237.363 124.262 237.311C123.802 237.311 123.392 237.363 123.033 237.516C122.675 237.67 122.368 237.875 122.112 238.131C121.856 238.387 121.651 238.745 121.497 239.104C121.344 239.462 121.241 239.872 121.241 240.281C121.241 240.691 121.292 241.101 121.395 241.51C121.497 241.869 121.702 242.227 121.958 242.535C122.214 242.842 122.521 243.047 122.829 243.199C123.136 243.353 123.597 243.455 124.006 243.455C124.467 243.455 124.877 243.404 125.235 243.25C125.594 243.098 125.901 242.893 126.157 242.637C126.413 242.381 126.618 242.023 126.772 241.664C127.079 241.408 127.13 240.998 127.13 240.589Z" fill="white"/>
<path d="M130.712 237.569C130.712 237.261 130.661 236.954 130.609 236.698L131.685 236.647C131.736 236.852 131.736 237.108 131.736 237.313C131.736 237.569 131.787 237.773 131.787 237.927H131.838C132.043 237.466 132.35 237.108 132.76 236.801C133.17 236.493 133.682 236.34 134.194 236.34C134.347 236.34 134.45 236.34 134.604 236.34C134.706 236.34 134.86 236.34 134.962 236.391L134.86 237.466C134.808 237.466 134.706 237.415 134.552 237.415C134.399 237.415 134.245 237.415 134.091 237.415C133.784 237.415 133.528 237.466 133.221 237.62C132.965 237.722 132.709 237.927 132.504 238.183C132.299 238.439 132.146 238.746 132.043 239.104C131.941 239.462 131.89 239.923 131.89 240.435L132.043 244.378L130.917 244.429L130.712 238.439C130.712 238.183 130.712 237.927 130.712 237.569Z" fill="white"/>
<path d="M137.83 245.555C138.188 245.913 138.649 246.221 139.212 246.425C139.776 246.63 140.338 246.733 140.952 246.63C141.516 246.579 141.925 246.425 142.335 246.221C142.693 246.016 143.001 245.76 143.206 245.452C143.41 245.145 143.564 244.838 143.615 244.428C143.666 244.07 143.718 243.66 143.666 243.251L143.513 241.818H143.462C143.206 242.33 142.847 242.74 142.335 243.047C141.823 243.353 141.311 243.558 140.748 243.609C140.133 243.66 139.622 243.66 139.11 243.507C138.598 243.353 138.137 243.148 137.779 242.842C137.42 242.535 137.062 242.176 136.857 241.715C136.601 241.255 136.447 240.742 136.396 240.179C136.345 239.616 136.396 239.104 136.498 238.592C136.652 238.08 136.857 237.67 137.164 237.26C137.471 236.851 137.83 236.543 138.291 236.287C138.752 236.031 139.264 235.878 139.878 235.775C140.44 235.725 141.004 235.775 141.567 235.98C142.13 236.185 142.591 236.492 142.95 236.953H143.001L142.847 235.623L143.974 235.52L144.793 243.098C144.844 243.507 144.844 243.967 144.793 244.428C144.742 244.889 144.588 245.35 144.281 245.811C144.025 246.221 143.615 246.63 143.103 246.937C142.591 247.245 141.925 247.45 141.055 247.552C140.338 247.654 139.673 247.552 139.008 247.347C138.342 247.142 137.727 246.835 137.215 246.425L137.83 245.555ZM137.42 240.128C137.471 240.538 137.574 240.896 137.727 241.255C137.881 241.613 138.137 241.869 138.393 242.125C138.649 242.381 139.008 242.535 139.366 242.688C139.724 242.791 140.133 242.842 140.594 242.791C141.004 242.74 141.413 242.637 141.721 242.432C142.079 242.227 142.335 242.023 142.591 241.715C142.847 241.408 143.001 241.101 143.103 240.691C143.206 240.333 143.257 239.923 143.206 239.462C143.154 239.053 143.052 238.694 142.847 238.336C142.642 237.977 142.437 237.721 142.13 237.465C141.823 237.209 141.516 237.056 141.106 236.902C140.748 236.8 140.338 236.748 139.929 236.799C139.468 236.851 139.059 236.953 138.752 237.158C138.393 237.363 138.137 237.619 137.932 237.926C137.727 238.233 137.574 238.541 137.471 238.95C137.42 239.309 137.369 239.718 137.42 240.128Z" fill="white"/>
<path d="M147.864 242.994L146.893 242.841L149.554 230.246L150.527 230.4L147.864 242.994Z" fill="white"/>
<path d="M156.365 234.856C156.109 234.6 155.803 234.395 155.444 234.292C155.086 234.19 154.676 234.19 154.266 234.292C154.062 234.344 153.908 234.395 153.703 234.497C153.498 234.6 153.345 234.702 153.242 234.804C153.14 234.958 153.037 235.112 152.986 235.265C152.935 235.419 152.935 235.624 152.986 235.829C153.089 236.187 153.293 236.392 153.601 236.545C153.908 236.648 154.42 236.699 155.086 236.699C156.006 236.648 156.723 236.75 157.235 237.006C157.747 237.262 158.055 237.672 158.208 238.235C158.311 238.644 158.311 239.054 158.208 239.361C158.106 239.668 157.952 239.975 157.747 240.231C157.543 240.487 157.235 240.692 156.928 240.846C156.621 240.999 156.262 241.153 155.955 241.204C155.393 241.358 154.83 241.358 154.215 241.256C153.652 241.153 153.089 240.897 152.628 240.487L153.345 239.617C153.601 239.924 153.959 240.129 154.369 240.231C154.778 240.385 155.239 240.385 155.7 240.283C155.955 240.231 156.16 240.129 156.365 240.078C156.57 239.975 156.723 239.873 156.877 239.719C157.031 239.566 157.082 239.412 157.184 239.207C157.235 239.002 157.235 238.798 157.184 238.543C157.082 238.133 156.826 237.877 156.416 237.774C156.006 237.672 155.393 237.621 154.625 237.621C154.369 237.621 154.113 237.621 153.857 237.621C153.601 237.621 153.345 237.518 153.089 237.416C152.833 237.314 152.628 237.16 152.423 236.955C152.218 236.75 152.064 236.494 152.013 236.136C151.911 235.777 151.911 235.419 152.013 235.112C152.116 234.804 152.218 234.548 152.423 234.292C152.628 234.036 152.884 233.832 153.191 233.678C153.498 233.524 153.805 233.371 154.164 233.319C154.676 233.217 155.239 233.166 155.75 233.319C156.314 233.422 156.723 233.678 157.082 234.036L156.365 234.856Z" fill="white"/>
<path d="M167.475 233.522C167.68 234.086 167.731 234.598 167.68 235.161C167.628 235.673 167.526 236.185 167.27 236.646C167.065 237.107 166.707 237.516 166.297 237.875C165.887 238.233 165.376 238.489 164.813 238.694C164.25 238.899 163.687 238.95 163.174 238.95C162.611 238.899 162.15 238.797 161.689 238.541C161.229 238.336 160.819 237.977 160.46 237.619C160.102 237.209 159.846 236.748 159.641 236.185C159.436 235.622 159.385 235.11 159.436 234.546C159.488 234.034 159.59 233.522 159.846 233.062C160.051 232.602 160.409 232.192 160.819 231.833C161.229 231.475 161.741 231.219 162.304 231.014C162.867 230.809 163.43 230.758 163.994 230.758C164.557 230.809 165.018 230.912 165.479 231.168C165.939 231.373 166.348 231.731 166.707 232.089C167.065 232.499 167.321 232.96 167.475 233.522ZM166.399 233.881C166.246 233.471 166.092 233.113 165.836 232.806C165.581 232.499 165.325 232.243 164.967 232.038C164.659 231.833 164.301 231.731 163.891 231.68C163.482 231.629 163.072 231.68 162.662 231.833C162.253 231.987 161.894 232.192 161.587 232.448C161.28 232.704 161.075 233.011 160.921 233.369C160.768 233.727 160.665 234.086 160.665 234.495C160.665 234.905 160.717 235.315 160.87 235.724C161.024 236.134 161.177 236.492 161.433 236.8C161.689 237.107 161.945 237.363 162.304 237.568C162.611 237.772 162.97 237.875 163.379 237.926C163.789 237.977 164.147 237.926 164.608 237.772C165.018 237.619 165.376 237.414 165.684 237.158C165.99 236.902 166.195 236.595 166.348 236.236C166.502 235.878 166.553 235.519 166.604 235.11C166.553 234.7 166.502 234.29 166.399 233.881Z" fill="white"/>
<path d="M174.233 228.404C173.926 228.199 173.619 228.096 173.209 228.045C172.799 227.994 172.39 228.096 172.031 228.25C171.622 228.404 171.263 228.66 171.007 228.967C170.751 229.274 170.546 229.581 170.393 229.94C170.29 230.298 170.239 230.657 170.239 231.066C170.239 231.476 170.342 231.886 170.546 232.295C170.7 232.705 170.956 233.063 171.212 233.319C171.468 233.627 171.775 233.831 172.134 233.985C172.492 234.139 172.851 234.241 173.26 234.241C173.67 234.241 174.08 234.139 174.489 233.985C174.95 233.78 175.309 233.524 175.513 233.217C175.769 232.91 175.923 232.603 175.974 232.244L176.997 232.5C176.844 233.012 176.64 233.473 176.282 233.883C175.923 234.292 175.462 234.651 174.848 234.907C174.284 235.162 173.721 235.264 173.158 235.315C172.595 235.315 172.134 235.264 171.622 235.06C171.161 234.856 170.751 234.6 170.342 234.19C169.983 233.831 169.676 233.371 169.42 232.807C169.216 232.295 169.062 231.732 169.062 231.22C169.062 230.708 169.114 230.196 169.318 229.735C169.522 229.274 169.778 228.813 170.188 228.455C170.546 228.045 171.058 227.738 171.622 227.534C172.083 227.329 172.595 227.227 173.209 227.227C173.824 227.227 174.284 227.38 174.797 227.636L174.233 228.404Z" fill="white"/>
</svg>
