<svg xmlns="http://www.w3.org/2000/svg" viewBox="0 0 1024 1024"><path d="M512 1022.5a19.97 19.97 0 0 1-17.3-10c-5.5-9.6-2.2-21.8 7.3-27.3l414.8-239.5v-479c0-11.1 9-20 20-20s20 8.9 20 20v490.5c0 7.2-3.8 13.8-10 17.3L522 1019.8c-3.2 1.8-6.6 2.7-10 2.7z" fill="#e42527"/><path d="M512 1022.5c-3.4 0-6.8-.9-10-2.7L77.2 774.6c-6.2-3.6-10-10.2-10-17.3V266.8a19.93 19.93 0 0 1 20-20 19.93 19.93 0 0 1 20 20v479L522 985.2c9.6 5.5 12.8 17.8 7.3 27.3a19.97 19.97 0 0 1-17.3 10z" fill="#f9b21d"/><path d="M936.7 286.8c-3.4 0-6.8-.9-10-2.7L512 44.6 97.2 284.1c-9.6 5.5-21.8 2.2-27.3-7.3-5.5-9.6-2.2-21.8 7.3-27.3L502 4.2a19.87 19.87 0 0 1 20 0l424.8 245.2c9.6 5.5 12.8 17.8 7.3 27.3-3.7 6.5-10.4 10.1-17.4 10.1z" fill="#226db4"/><path d="M512 728.2a19.97 19.97 0 0 1-17.3-10c-5.5-9.6-2.2-21.8 7.3-27.3l159.9-92.3V413.9c0-11 9-20 20-20s20 9 20 20v196.2c0 7.2-3.8 13.8-10 17.3L522 725.5c-3.2 1.8-6.6 2.7-10 2.7z" fill="#e42527"/><path d="M512 728.2c-3.4 0-6.8-.9-10-2.7l-169.9-98.1c-6.2-3.6-10-10.2-10-17.3V413.9c0-11 9-20 20-20s20 9 20 20v184.6L522 690.9c9.6 5.5 12.8 17.8 7.3 27.3a19.97 19.97 0 0 1-17.3 10z" fill="#f9b21d"/><path d="M681.9 433.9c-3.4 0-6.8-.9-10-2.7L512 338.9l-159.9 92.3c-9.6 5.5-21.8 2.2-27.3-7.3-5.5-9.6-2.2-21.8 7.3-27.3L502 298.5a19.87 19.87 0 0 1 20 0l169.9 98.1c9.6 5.5 12.8 17.8 7.3 27.3a19.97 19.97 0 0 1-17.3 10z" fill="#226db4"/><g fill="#089949"><path d="M512 532c-3.4 0-6.8-.9-10-2.7L77.2 284.1c-9.6-5.5-12.8-17.8-7.3-27.3 5.5-9.6 17.8-12.8 27.3-7.3L522 494.7c9.6 5.5 12.8 17.8 7.3 27.3a19.97 19.97 0 0 1-17.3 10z"/><path d="M512 532a19.97 19.97 0 0 1-17.3-10c-5.5-9.6-2.2-21.8 7.3-27.3l424.8-245.2c9.6-5.5 21.8-2.2 27.3 7.3s2.2 21.8-7.3 27.3L522 529.3c-3.2 1.8-6.6 2.7-10 2.7z"/><path d="M512 1022.5c-11 0-20-9-20-20V512c0-11 9-20 20-20s20 9 20 20v490.5c0 11-9 20-20 20z"/></g></svg>