<svg width="104" height="29" viewBox="0 0 104 29" fill="none" xmlns="http://www.w3.org/2000/svg">
<path d="M82.7243 0.82751L85.104 8.31214L84.2212 8.6192C81.8798 4.35872 78.6557 1.90222 74.472 1.90222C68.3691 1.90222 65.644 7.08389 65.644 14.2615C65.644 21.439 68.3308 26.5823 74.472 26.5823C78.6557 26.5823 82.494 24.2793 83.7222 20.2492L85.4494 20.8249C83.7222 25.5076 80.1142 28.2711 74.2417 28.2711C66.7187 28.2711 61.4219 22.3602 61.4219 14.2615C61.4219 6.1627 66.7187 0.25177 74.2417 0.25177C77.1972 0.25177 79.5001 1.05781 81.0354 2.1709L81.6112 0.82751H82.7243Z" fill="black"/>
<path d="M42.1373 5.12726V19.7894C42.1373 24.4721 45.323 26.5064 49.737 26.5064C53.5369 26.5064 56.7227 24.3954 56.7227 19.8662V5.12726C56.7227 2.17179 56.0702 1.97988 52.9996 1.78797V0.8284H62.4033V1.78797C59.3327 1.97988 58.6802 2.17179 58.6802 5.12726V19.8662C58.6802 24.3954 55.5712 28.272 49.0845 28.272C42.4059 28.272 38.3374 25.4317 38.3374 19.8662V5.12726C38.3374 2.17179 37.6849 1.97988 34.6143 1.78797V0.8284H45.8604V1.78797C42.7898 1.97988 42.1373 2.17179 42.1373 5.12726Z" fill="black"/>
<path d="M36.7139 27.6963H25.4678V26.7367C28.5384 26.5448 29.1909 26.3145 29.1909 23.3974V5.12726C29.1909 2.17179 28.5384 1.97988 25.4678 1.78797V0.8284H36.7139V1.78797C33.6433 1.97988 32.9908 2.17179 32.9908 5.12726V23.3974C32.9908 26.3145 33.6433 26.5448 36.7139 26.7367V27.6963Z" fill="black"/>
<path d="M12.3423 0.8284H14.5301L23.3198 23.9348C23.9723 25.7388 24.7399 26.5448 26.5439 26.7367V27.6963H16.5644V26.7367C19.4431 26.5448 20.0956 25.9691 19.4815 24.357L17.5624 19.444H7.12228L5.27991 24.357C4.70417 25.8155 5.58697 26.5448 8.54244 26.7367V27.6963H0.0214844V26.7367C1.94062 26.5448 2.90019 25.7388 3.47593 24.1267L12.3423 0.8284ZM12.3039 5.74138L7.77479 17.7552H16.9099L12.3039 5.74138Z" fill="black"/>
<path d="M84.6377 15.9986V13.7607H91.404V15.9986H84.6377Z" fill="#1A1A1A"/>
<path d="M103.153 28.273H89.8145V27.3202C93.7018 27.1296 94.6546 26.901 94.6546 24.0045V6.74012C94.6546 5.82545 94.3116 5.52056 93.4731 5.52056H89.8526V4.72023L96.9031 1.02344H98.3133V24.0045C98.3133 26.901 99.3041 27.1296 103.153 27.3202V28.273Z" fill="black"/>
</svg>
