<svg width="64" height="64" viewBox="0 0 64 64" fill="none" xmlns="http://www.w3.org/2000/svg">
<mask id="mask0_2178_32" style="mask-type:luminance" maskUnits="userSpaceOnUse" x="0" y="0" width="64" height="64">
<path d="M64 0.969696H0V63.0303H64V0.969696Z" fill="white"/>
</mask>
<g mask="url(#mask0_2178_32)">
<path d="M2.56055 20.9427V15.6747C2.56055 14.511 3.49449 13.5676 4.64657 13.5675L18.7765 13.567L56.2778 13.5676C57.43 13.5676 58.364 14.511 58.364 15.6748V34.0028M2.56055 26.2107V48.3363C2.56055 49.4999 3.49455 50.4432 4.64665 50.4432H47.2582" stroke="#EC0000"/>
<path fill-rule="evenodd" clip-rule="evenodd" d="M9.78593 25.2292V32.5713H17.0544V25.2292H9.78593ZM8.61923 22.8492C7.96225 22.8492 7.42969 23.3871 7.42969 24.0508V33.7497C7.42969 34.4134 7.96225 34.9514 8.61921 34.9514H18.2211C18.878 34.9514 19.4106 34.4134 19.4106 33.7497V24.0508C19.4106 23.3871 18.878 22.8492 18.2211 22.8492H8.61923Z" fill="#EC0000"/>
<path d="M31.2042 18.6068H24.5586C23.9826 18.6068 23.5156 19.0785 23.5156 19.6604V26.373C23.5156 26.9549 23.9826 27.4267 24.5586 27.4267H31.2042C31.7804 27.4267 32.2472 26.9549 32.2472 26.373V19.6604C32.2472 19.0785 31.7804 18.6068 31.2042 18.6068Z" fill="#EC0000"/>
<path fill-rule="evenodd" clip-rule="evenodd" d="M52.6488 28.7562L63.2174 33.1925H63.2046C63.6928 33.3872 64.0008 33.8672 64.0008 34.3858V39.7692C64.0008 47.3057 59.5448 54.0121 52.636 56.8526C52.4818 56.9175 52.3148 56.9433 52.148 56.9433C51.981 56.9433 51.8142 56.9175 51.66 56.8526C44.7512 53.9989 40.295 47.2927 40.295 39.7692V34.3858C40.295 33.8672 40.616 33.4002 41.091 33.1925L51.66 28.7562C51.981 28.6266 52.3276 28.6266 52.6488 28.7562ZM60.5616 38.6444C61.0488 38.1521 61.0488 37.3545 60.5616 36.8624C60.0746 36.3702 59.2848 36.3702 58.7976 36.8624L50.8294 44.9111L46.423 40.851C45.9138 40.3821 45.1252 40.4187 44.6608 40.9328C44.1964 41.4468 44.2328 42.2439 44.7416 42.7128L49.8524 47.4217C50.4432 47.9663 51.3538 47.9453 51.9196 47.374L60.5616 38.6444Z" fill="#EC0000"/>
<path d="M55.6606 5.56323C55.999 5.7605 55.999 6.25369 55.6606 6.45096L49.6986 9.92795C49.3604 10.1252 48.9376 9.87865 48.9376 9.4841V2.53011C48.9376 2.13556 49.3604 1.88896 49.6986 2.08624L55.6606 5.56323Z" fill="#EC0000"/>
<path fill-rule="evenodd" clip-rule="evenodd" d="M41.1378 4.98083H49.8694V7.03096H41.1378C40.5772 7.03096 40.123 6.57202 40.123 6.00591C40.123 5.43977 40.5772 4.98083 41.1378 4.98083Z" fill="#EC0000"/>
<path d="M3.32207 58.4374C2.98379 58.2402 2.98379 57.747 3.32207 57.5498L9.28413 54.0728C9.62241 53.8754 10.0452 54.1221 10.0452 54.5168V61.4706C10.0452 61.8653 9.62241 62.1116 9.28413 61.9144L3.32207 58.4374Z" fill="#EC0000"/>
<path fill-rule="evenodd" clip-rule="evenodd" d="M17.8489 59.0198H9.11719V56.9695H17.8489C18.4093 56.9695 18.8637 57.4284 18.8637 57.9947C18.8637 58.5608 18.4093 59.0198 17.8489 59.0198Z" fill="#EC0000"/>
</g>
</svg>
