<svg id="cloud-security-icon" xmlns="http://www.w3.org/2000/svg" width="64" height="64" viewBox="0 0 64 64">
  <rect id="Bounding_Box" data-name="Bounding Box" width="64" height="64" fill="none"/>
  <g id="Cloud_Security" data-name="Cloud Security" transform="translate(2 8.313)">
    <path id="Path_380" data-name="Path 380" d="M2360.71,3245.23a11.959,11.959,0,0,0-11.87-10.74h-.04a11.792,11.792,0,0,0-5.19,1.2,16.556,16.556,0,0,0-30.73,10.46,10.855,10.855,0,0,0,5.7,20.09h5.33v5.26a3.483,3.483,0,0,0,3.48,3.48h19.55a3.483,3.483,0,0,0,3.48-3.48v-5.26h6.45a10.854,10.854,0,0,0,3.83-21.01Zm-12.28,26.27a1.477,1.477,0,0,1-1.48,1.48H2327.4a1.483,1.483,0,0,1-1.48-1.48v-14.41a1.477,1.477,0,0,1,1.48-1.48h3.39c.6-.01,1.2,0,1.8,0h14.35a1.483,1.483,0,0,1,1.48,1.48v14.41Zm-9.5-17.9h-3.5c-1.09,0-2.19,0-3.28.01h-1.19c.01-.4.01-.8.01-1.2a9.289,9.289,0,0,1,.33-3.06,6.2,6.2,0,0,1,5.32-4.5,6.291,6.291,0,0,1,.75-.05,5.837,5.837,0,0,1,4.69,2.54,6.824,6.824,0,0,1,1.33,4.21v2.05c-1.49-.01-2.97-.01-4.46,0Zm26.42,4.38a8.805,8.805,0,0,1-8.47,6.26h-6.45v-7.15a3.483,3.483,0,0,0-3.48-3.48h-1.55c0-.33-.01-.66,0-.99v-1.11a8.647,8.647,0,0,0-1.75-5.4,7.72,7.72,0,0,0-7.27-3.24,8.152,8.152,0,0,0-6.96,5.82,10.8,10.8,0,0,0-.44,3.73c0,.4,0,.79-.02,1.19h-1.55a3.483,3.483,0,0,0-3.48,3.48v7.15h-5.33a8.855,8.855,0,0,1-4.14-16.68l.64-.34-.12-.72a14.55,14.55,0,0,1,27.35-9l.48.97.93-.56a9.871,9.871,0,0,1,5.08-1.41h.03a9.962,9.962,0,0,1,9.93,9.52l.03.71.67.21a8.875,8.875,0,0,1,5.88,11.06Z" transform="translate(-2307.73 -3227.45)" fill="#ec0000"/>
    <path id="Path_381" data-name="Path 381" d="M2337.17,3260.16a2.093,2.093,0,0,0-1.93,1.18,1.686,1.686,0,0,0,.04,1.89,2.457,2.457,0,0,1,.5,1.79,8.841,8.841,0,0,0,.01,1.03,1.335,1.335,0,0,0,1.21,1.22,1.357,1.357,0,0,0,1.41-.76,4.367,4.367,0,0,0,.18-2.03,1.34,1.34,0,0,1,.3-.95,1.8,1.8,0,0,0,.25-2.15,2.1,2.1,0,0,0-1.96-1.22Z" transform="translate(-2307.73 -3227.45)" fill="#ec0000"/>
  </g>
</svg>
